<?xml version="1.0" encoding="UTF-8"?>
<svg version="1.1" xmlns="http://www.w3.org/2000/svg" width="870" height="287">
<path d="M0 0 C0.71800781 0.65871094 1.43601562 1.31742188 2.17578125 1.99609375 C2.82160156 2.56199219 3.46742188 3.12789062 4.1328125 3.7109375 C13.48630428 12.37157804 18.11448609 23.76932357 19.55859375 36.32421875 C20.10493122 51.40313288 13.88983866 65.17664334 3.92578125 76.24609375 C-9.76154797 90.84421206 -28.79419553 99.16336527 -48.734375 100.19921875 C-68.94770564 100.57936884 -89.00092308 95.39358239 -104.07421875 81.24609375 C-113.56886356 71.12884928 -119.99204498 58.0725189 -119.82421875 43.99609375 C-118.58909008 26.54990125 -110.63579149 12.46809426 -97.57421875 1.12109375 C-70.48531723 -19.67249967 -26.86065447 -23.25578759 0 0 Z " fill="#0F86A5" transform="translate(218.82421875,144.00390625)"/>
<path d="M0 0 C1.20540436 -0.00637985 2.41080872 -0.0127597 3.65274048 -0.01933289 C5.59653091 -0.02100212 5.59653091 -0.02100212 7.57958984 -0.02270508 C8.9361474 -0.0259232 10.29270462 -0.02928768 11.64926147 -0.03279114 C14.49209394 -0.03877004 17.33489607 -0.04063249 20.17773438 -0.04003906 C23.79182285 -0.03993791 27.40571277 -0.05354658 31.01975441 -0.07081127 C33.823607 -0.08202434 36.62741316 -0.08395538 39.43128586 -0.08342934 C41.40241711 -0.08515929 43.37353387 -0.09594625 45.34463501 -0.10697937 C65.68086468 -0.05587575 65.68086468 -0.05587575 72.91552734 6.14526367 C78.01681129 11.3177946 80.20119484 15.99859787 80.29052734 23.27026367 C80.19544633 30.2349478 79.03106094 38.02973008 73.91552734 43.14526367 C71.94433594 43.37231445 71.94433594 43.37231445 69.56396484 43.34057617 C68.71318359 43.33413086 67.86240234 43.32768555 66.98583984 43.32104492 C66.09638672 43.30428711 65.20693359 43.2875293 64.29052734 43.27026367 C62.94474609 43.25672852 62.94474609 43.25672852 61.57177734 43.24291992 C59.35276149 43.21931337 57.13427657 43.18638677 54.91552734 43.14526367 C55.78271484 35.46557617 55.78271484 35.46557617 56.97802734 32.58276367 C58.21252285 29.37307536 58.04909285 26.55118416 57.91552734 23.14526367 C55.12995177 21.75247589 52.84175304 22.01033099 49.72509766 22 C47.77231903 21.99043022 47.77231903 21.99043022 45.78009033 21.98066711 C44.35127805 21.97913803 42.92246526 21.97802429 41.49365234 21.97729492 C40.03114794 21.97408187 38.56864386 21.97071776 37.10614014 21.96720886 C34.03608455 21.96121434 30.96605712 21.95936918 27.89599609 21.95996094 C23.97081762 21.96006232 20.04582103 21.94643685 16.12068558 21.92918873 C13.09742411 21.91804099 10.07420612 21.91604262 7.05092621 21.91657066 C5.60451381 21.9153937 4.15810018 21.91098788 2.71170807 21.9032383 C0.68234098 21.89338755 -1.34707941 21.89759377 -3.37646484 21.90234375 C-5.10615509 21.90020622 -5.10615509 21.90020622 -6.87078857 21.89802551 C-13.30132211 22.39274535 -16.89154714 24.27240429 -21.08447266 29.14526367 C-24.2191947 33.25283049 -24.19750938 36.06456032 -24.08447266 41.14526367 C-23.22527222 41.15112991 -22.36607178 41.15699615 -21.48083496 41.16304016 C-13.35983469 41.22108851 -5.2391059 41.29323441 2.88162994 41.38097858 C7.05599514 41.42559153 11.23026479 41.46486726 15.40478516 41.49169922 C19.43797954 41.51782329 23.47080441 41.55828896 27.50376892 41.60844994 C29.03778974 41.6250574 30.57187438 41.63660963 32.10597229 41.64287758 C43.41120748 41.69371645 51.66012089 42.3148394 60.22021484 50.32104492 C64.35135592 54.76630502 65.39001154 59.23015557 65.91552734 65.14526367 C63.25846823 82.29703834 56.64245871 100.64254689 42.66552734 111.58276367 C34.43229377 117.07909471 26.61341577 119.27428981 16.76318359 119.73510742 C15.98382446 119.77461517 15.20446533 119.81412292 14.40148926 119.85482788 C6.08818623 120.24068306 -2.22251992 120.29645312 -10.54345703 120.27563477 C-13.08323122 120.2702663 -15.62282868 120.27562811 -18.16259766 120.28198242 C-26.39043801 120.28734012 -34.61364735 120.17645449 -42.83447266 119.82495117 C-43.54877441 119.80296661 -44.26307617 119.78098206 -44.99902344 119.7583313 C-50.80714778 119.4616052 -56.49294638 118.25650708 -61.10791016 114.49682617 C-61.77693359 113.64217773 -61.77693359 113.64217773 -62.45947266 112.77026367 C-63.15169922 111.92334961 -63.15169922 111.92334961 -63.85791016 111.05932617 C-67.71850302 105.03483412 -67.89001062 99.10798291 -67.08447266 92.14526367 C-65.73828594 87.33602413 -64.03808305 82.73920811 -62.08447266 78.14526367 C-61.83955078 77.36795898 -61.59462891 76.5906543 -61.34228516 75.78979492 C-60.08447266 74.14526367 -60.08447266 74.14526367 -57.03759766 73.50073242 C-55.20455078 73.41758789 -55.20455078 73.41758789 -53.33447266 73.33276367 C-52.12275391 73.26444336 -50.91103516 73.19612305 -49.66259766 73.12573242 C-46.33702603 73.14388511 -43.33837714 73.49148838 -40.08447266 74.14526367 C-40.51293884 79.92955718 -41.81719037 84.38354767 -44.24462891 89.65307617 C-45.23503505 92.59204882 -45.14136927 95.06226116 -45.08447266 98.14526367 C-36.09584169 98.23818848 -27.10737761 98.30914204 -18.11837006 98.35251236 C-13.94381165 98.37333429 -9.76958332 98.40155218 -5.59521484 98.44702148 C-1.56218753 98.49067333 2.47052348 98.5144413 6.50376892 98.52477264 C8.03788732 98.53212952 9.57198957 98.54649559 11.10597229 98.5681839 C22.6118937 98.77312572 22.6118937 98.77312572 32.91552734 94.14526367 C36.54397793 89.83686493 38.37563391 84.95853304 40.22802734 79.70776367 C40.50453125 78.98266602 40.78103516 78.25756836 41.06591797 77.51049805 C41.32179688 76.79313477 41.57767578 76.07577148 41.84130859 75.33666992 C42.07245361 74.69930908 42.30359863 74.06194824 42.54174805 73.40527344 C43.07274948 70.19463969 42.47291928 67.3276525 41.91552734 64.14526367 C32.75018683 63.27806686 23.66548118 63.08001434 14.46240234 63.15307617 C12.79075012 63.16488922 12.79075012 63.16488922 11.08532715 63.17694092 C6.4361197 63.21336739 1.78713734 63.25551382 -2.86181641 63.31665039 C-6.29543971 63.35923574 -9.72878125 63.38247892 -13.16259766 63.40307617 C-14.71300751 63.43100754 -14.71300751 63.43100754 -16.29473877 63.45950317 C-26.14212708 63.49379895 -35.21138714 62.19872413 -42.49072266 55.09838867 C-46.24144689 50.50191289 -47.70043385 45.28994658 -47.43212891 39.34057617 C-45.61387509 27.85901834 -38.98028027 17.47639366 -30.08447266 10.14526367 C-20.92412474 3.67824064 -11.25111577 0.0405688 0 0 Z " fill="#FCFCFC" transform="translate(602.08447265625,106.854736328125)"/>
<path d="M0 0 C0.80052292 -0.00014603 1.60104584 -0.00029205 2.42582703 -0.0004425 C5.0608495 0.00025184 7.69580049 0.00802183 10.33081055 0.01586914 C12.16212424 0.01773502 13.99343844 0.01915812 15.82475281 0.02015686 C20.63666165 0.02396867 25.44854014 0.03378754 30.26043701 0.04486084 C35.17386464 0.0551037 40.08729719 0.05966064 45.00073242 0.06469727 C54.63551135 0.07541102 64.2702678 0.09247139 73.9050293 0.11352539 C75.08529898 4.94255876 74.34416848 7.61847444 72.5925293 12.30102539 C72.14264648 13.53208008 71.69276367 14.76313477 71.22924805 16.03149414 C69.9050293 19.11352539 69.9050293 19.11352539 67.9050293 21.11352539 C65.38298883 21.31516712 62.96881801 21.39359236 60.4453125 21.38476562 C59.67597885 21.38999237 58.9066452 21.39521912 58.11399841 21.40060425 C56.43997048 21.41086011 54.76591051 21.41662741 53.09185219 21.41848564 C50.43902793 21.42214227 47.78657992 21.4388516 45.13383484 21.45924377 C37.59027113 21.51470842 30.04665051 21.54527761 22.50292969 21.56982422 C17.89043741 21.58573884 13.27820884 21.61600553 8.6658535 21.6545887 C6.91049192 21.66621165 5.15508306 21.67216881 3.399683 21.67226982 C0.93675029 21.67246283 -1.52546111 21.69080055 -3.98828125 21.71289062 C-4.70803131 21.70831345 -5.42778137 21.70373627 -6.16934204 21.69902039 C-12.53412943 21.78934185 -17.12589735 23.23603685 -21.7824707 27.67602539 C-24.84048615 31.96181622 -24.84048615 31.96181622 -28.0949707 41.11352539 C0.9450293 41.44352539 29.9850293 41.77352539 59.9050293 42.11352539 C59.10614448 46.90683432 58.15268251 50.48068654 56.4050293 54.92602539 C55.9615918 56.0668457 55.5181543 57.20766602 55.0612793 58.38305664 C53.9050293 61.11352539 53.9050293 61.11352539 52.9050293 62.11352539 C50.23826558 62.35704534 47.5960686 62.53734416 44.9230957 62.66992188 C44.11269648 62.71210311 43.30229725 62.75428434 42.46734047 62.7977438 C34.18148541 63.19822749 25.90954895 63.24111479 17.6159668 63.21118164 C16.04985602 63.20930863 14.48374464 63.20788892 12.91763306 63.20689392 C8.86379275 63.20313812 4.80999026 63.19337027 0.75616455 63.18218994 C-3.40775034 63.17182352 -7.57167154 63.16736423 -11.7355957 63.16235352 C-19.85540441 63.15173916 -27.97518281 63.13475013 -36.0949707 63.11352539 C-37.20155064 66.09180107 -38.30477605 69.07130924 -39.4074707 72.05102539 C-39.71620117 72.88182617 -40.02493164 73.71262695 -40.34301758 74.56860352 C-41.87218588 78.7054062 -43.37622495 82.85014485 -44.8137207 87.01977539 C-45.17820312 88.07455078 -45.17820312 88.07455078 -45.55004883 89.15063477 C-46.29667986 91.84011216 -46.30793883 94.34493976 -46.0949707 97.11352539 C-42.43443406 98.33370427 -39.04056751 98.28981421 -35.22705078 98.31884766 C-34.42681992 98.32874725 -33.62658905 98.33864685 -32.80210876 98.34884644 C-30.15626995 98.38044142 -27.51041319 98.40521097 -24.86450195 98.42993164 C-23.03032463 98.45050289 -21.19615203 98.47149941 -19.36198425 98.49290466 C-14.5336591 98.54810762 -9.70529129 98.59752476 -4.87689209 98.64575195 C0.04980263 98.69597992 4.97643538 98.75165923 9.90307617 98.80688477 C19.57034094 98.91444463 29.23765951 99.01589446 38.9050293 99.11352539 C40.16053388 102.88003914 39.43174889 104.2786373 38.1550293 107.98852539 C37.80956055 109.01719727 37.4640918 110.04586914 37.1081543 111.10571289 C34.84759686 116.75710647 34.84759686 116.75710647 32.9050293 119.11352539 C28.10928515 120.06750752 23.43111259 120.24395971 18.55200195 120.25878906 C17.85342575 120.26214767 17.15484955 120.26550629 16.43510437 120.26896667 C14.14641498 120.27839543 11.85779935 120.28041561 9.5690918 120.28149414 C7.96397879 120.28471207 6.35886607 120.28807653 4.75375366 120.2915802 C1.39661988 120.29755109 -1.96048824 120.29942218 -5.31762695 120.29882812 C-9.59995946 120.29872656 -13.88212597 120.31238224 -18.16441917 120.32960033 C-21.4777399 120.3407678 -24.79102106 120.34274589 -28.10435867 120.3422184 C-29.68226316 120.34339123 -31.2601689 120.34777346 -32.83805466 120.35555077 C-54.34836001 120.45166141 -54.34836001 120.45166141 -62.0949707 114.11352539 C-66.28601996 109.92247613 -68.51279765 106.02022532 -69.0949707 100.11352539 C-69.05676627 92.19365784 -66.69274601 85.31956423 -63.9074707 77.98852539 C-63.50036865 76.88831055 -63.0932666 75.7880957 -62.67382812 74.65454102 C-61.49257677 71.4696688 -60.29625686 68.29088556 -59.0949707 65.11352539 C-58.52156724 63.58506209 -57.94858534 62.05644051 -57.3762207 60.52758789 C-56.42010536 57.9756742 -55.45688485 55.42685851 -54.48950195 52.87915039 C-53.48222046 50.19590583 -52.53120085 47.49826163 -51.60668945 44.78540039 C-46.28497829 29.17298295 -40.65932276 15.17578889 -26.0949707 6.11352539 C-17.32962639 2.07917949 -9.63063896 -0.04624137 0 0 Z " fill="#FCFCFC" transform="translate(350.094970703125,106.886474609375)"/>
<path d="M0 0 C1.1453421 -0.00637985 2.2906842 -0.0127597 3.47073364 -0.01933289 C5.31609207 -0.02100212 5.31609207 -0.02100212 7.19873047 -0.02270508 C9.11333572 -0.02769768 9.11333572 -0.02769768 11.06661987 -0.03279114 C13.76824427 -0.03785221 16.46976807 -0.04063263 19.17138672 -0.04003906 C22.60387709 -0.03993794 26.03615827 -0.0535439 29.46859932 -0.07081127 C32.77447871 -0.08473022 36.08032226 -0.08402359 39.38623047 -0.08520508 C40.60432404 -0.09239059 41.8224176 -0.09957611 43.0774231 -0.10697937 C62.79671852 -0.05486968 62.79671852 -0.05486968 70.53466797 6.43041992 C75.56284314 11.63647865 77.58693666 17.53452286 77.46826172 24.70776367 C76.86025883 30.05133835 74.93232546 35.08278183 73.19091797 40.14526367 C72.97129395 40.78641113 72.75166992 41.42755859 72.52539062 42.08813477 C68.1375195 54.84805158 63.43857371 67.50229628 58.69482422 80.13354492 C57.05280803 84.50667517 55.43237425 88.8876308 53.81591797 93.27026367 C53.35910645 94.50389648 53.35910645 94.50389648 52.89306641 95.76245117 C51.46705826 99.62511887 50.05986671 103.49053208 48.72998047 107.38745117 C48.30458984 108.6275293 47.87919922 109.86760742 47.44091797 111.14526367 C47.07482422 112.23838867 46.70873047 113.33151367 46.33154297 114.45776367 C45.19090676 117.14529007 44.42720831 118.33954315 42.19091797 120.14526367 C39.255235 120.38966146 36.55464422 120.47297258 33.62841797 120.39526367 C32.45762695 120.3875293 32.45762695 120.3875293 31.26318359 120.37963867 C25.50056194 120.30008566 25.50056194 120.30008566 23.19091797 119.14526367 C24.90685633 110.56557189 28.30048285 102.40364973 31.19091797 94.14526367 C11.06091797 94.14526367 -9.06908203 94.14526367 -29.80908203 94.14526367 C-29.01019721 89.35195474 -28.05673525 85.77810252 -26.30908203 81.33276367 C-25.64392578 79.6215332 -25.64392578 79.6215332 -24.96533203 77.87573242 C-23.80908203 75.14526367 -23.80908203 75.14526367 -22.80908203 74.14526367 C-11.46012232 72.78274883 0.06490821 72.989704 11.47436523 73.01489258 C14.41183464 73.02032548 17.34915588 73.01487619 20.28662109 73.00854492 C22.16487664 73.00920457 24.04313209 73.01048338 25.92138672 73.01245117 C27.23069405 73.00941483 27.23069405 73.00941483 28.56645203 73.00631714 C29.78471428 73.01104538 29.78471428 73.01104538 31.02758789 73.01586914 C32.09223518 73.01706253 32.09223518 73.01706253 33.1783905 73.01828003 C35.28672936 73.15130904 37.16171121 73.57152098 39.19091797 74.14526367 C39.37108963 73.59428009 39.55126129 73.04329651 39.7368927 72.47561646 C41.49226028 67.15237371 43.36460086 61.88713926 45.32763672 56.63745117 C45.91092954 55.05824946 46.49359348 53.47881535 47.07568359 51.89916992 C47.97860902 49.45051689 48.88477055 47.00333129 49.80151367 44.55981445 C50.69575663 42.17278002 51.57538449 39.78077342 52.45263672 37.38745117 C52.86505867 36.30281082 52.86505867 36.30281082 53.28581238 35.19625854 C53.53639908 34.50508942 53.78698578 33.81392029 54.04516602 33.10180664 C54.267061 32.50496063 54.48895599 31.90811462 54.71757507 31.29318237 C55.39173625 28.23399756 55.25960557 25.26525871 55.19091797 22.14526367 C46.70651337 22.07559636 38.22222931 22.02236787 29.73760891 21.98982716 C25.79738156 21.9742052 21.85735065 21.95303094 17.91723633 21.91894531 C14.11116175 21.88622722 10.30527553 21.86838458 6.49907112 21.86063194 C5.05067037 21.85511067 3.60227933 21.84432907 2.15395927 21.8280735 C-8.25393103 21.54818331 -8.25393103 21.54818331 -17.80908203 25.14526367 C-22.20664568 29.45411566 -24.28296857 33.94180995 -26.43408203 39.64526367 C-26.76545166 40.49838135 -27.09682129 41.35149902 -27.43823242 42.23046875 C-34.13463019 59.61543572 -40.38935896 77.1745594 -46.68408203 94.70776367 C-48.05573653 98.52147874 -49.43011633 102.33418597 -50.80908203 106.14526367 C-51.08510254 106.90822754 -51.36112305 107.67119141 -51.64550781 108.45727539 C-52.33713382 110.35647419 -53.04117075 112.25114183 -53.74658203 114.14526367 C-54.10623047 115.11463867 -54.46587891 116.08401367 -54.83642578 117.08276367 C-55.80908203 119.14526367 -55.80908203 119.14526367 -57.80908203 120.14526367 C-59.26007623 120.16125803 -60.7121671 120.11107857 -62.16064453 120.02416992 C-63.01142578 119.97583008 -63.86220703 119.92749023 -64.73876953 119.87768555 C-65.62822266 119.82161133 -66.51767578 119.76553711 -67.43408203 119.70776367 C-68.33126953 119.65555664 -69.22845703 119.60334961 -70.15283203 119.54956055 C-72.37192215 119.41972017 -74.59058075 119.28475028 -76.80908203 119.14526367 C-76.08120686 114.76108534 -74.68623907 110.68649645 -73.18408203 106.52026367 C-72.91684326 105.77156006 -72.64960449 105.02285645 -72.37426758 104.25146484 C-69.91424825 97.38322774 -67.39203208 90.53794051 -64.85986328 83.69604492 C-62.81194813 78.160387 -60.78011725 72.61886456 -58.75 67.07666016 C-57.79128394 64.45958591 -56.83057435 61.84325697 -55.86816406 59.22753906 C-53.80289322 53.61106708 -51.7455339 47.99305082 -49.75830078 42.34838867 C-44.39292481 27.18455266 -37.77324479 12.91556082 -22.80908203 5.14526367 C-15.31770064 2.15825428 -8.09197657 0.03072676 0 0 Z " fill="#FCFCFC" transform="translate(471.80908203125,106.854736328125)"/>
<path d="M0 0 C4.17567582 3.78025197 7.58769582 8.00102956 8.37109375 13.69921875 C8.56360355 22.36215968 6.8772515 27.51639419 1.2265625 34.05078125 C-14.79757879 49.86003942 -39.37988027 54.13212002 -61 54 C-76.18261099 53.82812139 -92.28801856 49.04511725 -103.62890625 38.62890625 C-106.89468317 34.74905162 -107.80997422 30.49305971 -108.4375 25.5625 C-107.34437737 16.66135859 -102.93468259 10.4952106 -96 5 C-69.51644447 -14.0015449 -27.79512716 -19.31114939 0 0 Z " fill="#0C8F9E" transform="translate(271,76)"/>
<path d="M0 0 C0.79075928 0.00523682 1.58151855 0.01047363 2.39624023 0.01586914 C3.67724609 0.02070312 3.67724609 0.02070312 4.98413086 0.02563477 C5.88196289 0.03401367 6.77979492 0.04239258 7.70483398 0.05102539 C8.6065332 0.05553711 9.50823242 0.06004883 10.43725586 0.06469727 C12.67234712 0.07652315 14.90730835 0.09300319 17.14233398 0.11352539 C18.54472826 4.32070821 16.88006259 7.10124081 15.32983398 11.05102539 C14.6868226 12.75243891 14.04497086 14.45429099 13.40405273 16.15649414 C13.04746582 17.09541504 12.69087891 18.03433594 12.32348633 19.00170898 C10.54002788 23.7003368 8.75894241 28.39950177 7.02246094 33.11572266 C6.11374123 35.58339578 5.19201246 38.04632339 4.25634766 40.50390625 C3.83716064 41.64867432 3.41797363 42.79344238 2.98608398 43.97290039 C2.60645508 44.98835938 2.22682617 46.00381836 1.83569336 47.05004883 C1.01184137 50.69008218 1.4244131 53.47719912 2.14233398 57.11352539 C10.21831485 57.18326042 18.29416836 57.2364552 26.37037659 57.26896191 C30.1211313 57.28456927 33.8716789 57.30571632 37.62231445 57.33984375 C41.24684667 57.37261462 44.87118059 57.39041542 48.49584961 57.39815712 C49.87364825 57.40366903 51.25143695 57.414432 52.62915039 57.43071556 C64.69824589 57.78826869 64.69824589 57.78826869 75.10205078 52.38476562 C78.43564855 47.51970066 80.88430913 42.69423061 82.95483398 37.17602539 C83.28104736 36.33644287 83.60726074 35.49686035 83.94335938 34.63183594 C87.19867746 26.16985199 90.24612864 17.62689443 93.26074219 9.07666016 C93.62256592 8.0537085 93.98438965 7.03075684 94.35717773 5.97680664 C94.83852173 4.60455933 94.83852173 4.60455933 95.32958984 3.20458984 C96.14233398 1.11352539 96.14233398 1.11352539 97.14233398 0.11352539 C98.55803522 0.02700928 99.97792899 0.00647635 101.39624023 0.01586914 C102.67724609 0.02070312 102.67724609 0.02070312 103.98413086 0.02563477 C105.33087891 0.03820312 105.33087891 0.03820312 106.70483398 0.05102539 C107.6065332 0.05553711 108.50823242 0.06004883 109.43725586 0.06469727 C111.67234712 0.07652315 113.90730835 0.09300319 116.14233398 0.11352539 C117.1710203 3.26148991 117.12265369 5.00885693 115.98999023 8.10571289 C115.71203613 8.88253418 115.43408203 9.65935547 115.14770508 10.4597168 C114.83655762 11.29422363 114.52541016 12.12873047 114.20483398 12.98852539 C113.88853027 13.86041504 113.57222656 14.73230469 113.24633789 15.63061523 C112.56926502 17.49430382 111.88780626 19.35640378 111.20239258 21.21704102 C110.13680153 24.12864217 109.0991167 27.04888868 108.06811523 29.97290039 C107.38493982 31.89492414 106.70135644 33.81680293 106.01733398 35.73852539 C105.70546143 36.62523926 105.39358887 37.51195312 105.07226562 38.42553711 C99.65056709 53.46965662 91.94020894 67.18378406 77.15014648 74.61743164 C68.59601433 78.36119771 60.94568373 79.2728272 51.70483398 79.17602539 C50.87790039 79.17151367 50.0509668 79.16700195 49.19897461 79.16235352 C47.18006252 79.1506835 45.16118824 79.13275257 43.14233398 79.11352539 C42.98385986 79.69642334 42.82538574 80.27932129 42.66210938 80.87988281 C40.81275525 87.57710362 38.31594065 93.98314285 35.74365234 100.42749023 C35.45240479 101.1604834 35.16115723 101.89347656 34.86108398 102.64868164 C34.57104492 103.37845215 34.28100586 104.10822266 33.98217773 104.86010742 C33.11350953 107.19086544 32.39412907 109.5418861 31.67358398 111.92211914 C30.44085269 115.56265302 29.57651218 118.07097496 26.14233398 120.11352539 C23.01509285 120.42716301 20.01277366 120.17069367 16.89233398 119.86352539 C16.05186523 119.7977832 15.21139648 119.73204102 14.34545898 119.66430664 C12.27615235 119.4997027 10.20894067 119.30913014 8.14233398 119.11352539 C8.81669998 113.64761153 10.53616823 108.7636146 12.39233398 103.61352539 C12.70372314 102.73728516 13.0151123 101.86104492 13.3359375 100.95825195 C14.26683984 98.34168744 15.20422521 95.72751326 16.14233398 93.11352539 C16.66756523 91.63974219 17.19234384 90.16579755 17.71655273 88.69165039 C18.85340436 85.49711308 19.99586265 82.30462534 21.14233398 79.11352539 C20.52825684 79.12923584 19.91417969 79.14494629 19.28149414 79.16113281 C16.4435381 79.22428733 13.60573065 79.26276716 10.76733398 79.30102539 C9.80182617 79.32616211 8.83631836 79.35129883 7.84155273 79.37719727 C-1.37937564 79.4700254 -9.61190417 78.22665268 -16.45532227 71.64086914 C-20.8534256 66.85073431 -21.76378596 62.46116735 -21.85766602 56.11352539 C-20.98664973 46.16234633 -16.49278347 36.70377425 -12.92016602 27.48852539 C-12.27945719 25.81953648 -11.63947768 24.1502674 -11.00024414 22.48071289 C-9.55755081 18.71525086 -8.10700826 14.95290199 -6.65164185 11.19232178 C-5.82042381 9.01601742 -5.01787253 6.83015197 -4.21484375 4.64331055 C-2.48798362 0.15204526 -2.48798362 0.15204526 0 0 Z " fill="#FCFBFC" transform="translate(701.857666015625,106.886474609375)"/>
<path d="M0 0 C2.96234624 2.82928577 3.99331862 5.22452306 4.1328125 9.30859375 C3.35042499 17.33588961 -2.35590804 23.17513466 -8.25 28.1640625 C-23.61469042 39.63703857 -42.14907369 44.23119048 -61.0625 42.3125 C-66.20103335 41.18141455 -69.72820596 39.51661902 -73.625 36 C-75.51768753 32.46149722 -76.12895746 30.36640507 -76.0625 26.3125 C-72.58014454 15.96540555 -64.69166046 8.2938958 -55.13085938 3.30444336 C-53.10562045 2.37704187 -51.0673655 1.51669048 -49 0.6875 C-48.26048096 0.38900146 -47.52096191 0.09050293 -46.7590332 -0.21704102 C-32.23005263 -5.89171745 -13.57777454 -10.1281367 0 0 Z " fill="#0F7CA9" transform="translate(166.0625,62.6875)"/>
<path d="M0 0 C1.92578125 0.46484375 1.92578125 0.46484375 4 2 C4.63398589 4.95131364 4.98134616 7.5728393 5.1875 10.5625 C5.26154053 11.4393042 5.33558105 12.3161084 5.41186523 13.21948242 C6.14649339 22.51638436 6.46678167 31.83708067 6.76953125 41.15625 C6.89192691 44.70974654 7.0730957 48.23951172 7.38671875 51.78125 C7.44722412 52.47500732 7.50772949 53.16876465 7.57006836 53.88354492 C7.73572022 55.65941383 7.92159908 57.43336524 8.109375 59.20703125 C7.98198277 62.46008295 7.19643928 63.66203757 5 66 C3.35 65.67 1.7 65.34 0 65 C-1.23430926 50.03071751 -1.54705225 35.00844544 -2 20 C-2.33 20 -2.66 20 -3 20 C-2.99333817 20.60943451 -2.98667633 21.21886902 -2.97981262 21.84677124 C-2.91359421 28.17285909 -2.86825579 34.49884898 -2.83520508 40.82519531 C-2.820091 43.1881917 -2.79959924 45.55115991 -2.77368164 47.9140625 C-2.73741371 51.30475809 -2.72030001 54.69508379 -2.70703125 58.0859375 C-2.69154739 59.14743011 -2.67606354 60.20892273 -2.66011047 61.30258179 C-2.65988388 62.28344757 -2.65965729 63.26431335 -2.65942383 64.27490234 C-2.65276199 65.14094086 -2.64610016 66.00697937 -2.63923645 66.89926147 C-2.75828842 67.59250519 -2.87734039 68.2857489 -3 69 C-6 71 -6 71 -8.625 70.75 C-9.800625 70.37875 -9.800625 70.37875 -11 70 C-12.69196504 66.61606992 -12.11986549 62.77522209 -12.09765625 59.0546875 C-12.0962413 58.1696756 -12.09482635 57.2846637 -12.09336853 56.37283325 C-12.0877614 53.54018809 -12.07520771 50.70762136 -12.0625 47.875 C-12.05748592 45.95703239 -12.05292285 44.03906354 -12.04882812 42.12109375 C-12.03778966 37.41403218 -12.02052025 32.7070294 -12 28 C-12.0501123 29.25659424 -12.10022461 30.51318848 -12.15185547 31.80786133 C-12.34005869 36.46551004 -12.54048546 41.12256597 -12.74462891 45.77954102 C-12.83130603 47.79600162 -12.91465792 49.812608 -12.99462891 51.8293457 C-13.1100883 54.72652133 -13.23745785 57.62296392 -13.3671875 60.51953125 C-13.40061249 61.42274612 -13.43403748 62.325961 -13.46847534 63.25654602 C-13.528311 64.5175135 -13.528311 64.5175135 -13.58935547 65.80395508 C-13.62044403 66.54341873 -13.65153259 67.28288239 -13.68356323 68.04475403 C-14 70 -14 70 -16 73 C-19.125 73.1875 -19.125 73.1875 -22 73 C-24.28126339 69.43927542 -23.98124937 67.28345765 -23.21484375 63.19921875 C-22.17313582 56.76298169 -21.62293622 50.40293325 -21.25390625 43.89453125 C-21.16742325 42.42546829 -21.16742325 42.42546829 -21.07919312 40.92672729 C-20.84183737 36.8461219 -20.61252643 32.76523226 -20.39819336 28.68334961 C-20.23740452 25.66956535 -20.05940731 22.65718996 -19.87890625 19.64453125 C-19.83504288 18.7196138 -19.7911795 17.79469635 -19.74598694 16.8417511 C-19.69260666 15.98623154 -19.63922638 15.13071198 -19.58422852 14.24926758 C-19.54362808 13.49873611 -19.50302765 12.74820465 -19.4611969 11.97492981 C-18.87862972 9.48027016 -18.03837386 8.5240659 -16 7 C-15.01 7 -14.02 7 -13 7 C-12.34 7.66 -11.68 8.32 -11 9 C-10.773125 8.195625 -10.54625 7.39125 -10.3125 6.5625 C-9.879375 5.716875 -9.44625 4.87125 -9 4 C-6.375 3.1875 -6.375 3.1875 -4 3 C-4 4.98 -4 6.96 -4 9 C-3.34 9 -2.68 9 -2 9 C-2.04125 7.88625 -2.0825 6.7725 -2.125 5.625 C-2 2 -2 2 0 0 Z M-3 11 C-2 13 -2 13 -2 13 Z " fill="#1F6A90" transform="translate(76,110)"/>
<path d="M0 0 C1.13695312 -0.02900391 2.27390625 -0.05800781 3.4453125 -0.08789062 C11.78174826 -0.15149019 11.78174826 -0.15149019 15.890625 2.109375 C18.35500414 5.23980255 18.04801954 7.43482092 17.625 11.3125 C17.295 12.3025 16.965 13.2925 16.625 14.3125 C13.75 14.4375 13.75 14.4375 10.625 14.3125 C9.965 13.6525 9.305 12.9925 8.625 12.3125 C8.955 10.9925 9.285 9.6725 9.625 8.3125 C1.705 8.6425 -6.215 8.9725 -14.375 9.3125 C-15.035 10.9625 -15.695 12.6125 -16.375 14.3125 C-15.73997559 14.29678955 -15.10495117 14.2810791 -14.45068359 14.26489258 C-11.5505477 14.2022141 -8.65055476 14.16340583 -5.75 14.125 C-4.75097656 14.09986328 -3.75195312 14.07472656 -2.72265625 14.04882812 C2.79775321 13.99398962 6.90554692 14.07473568 11.625 17.3125 C13.37971754 20.82193509 12.41584853 24.57282868 11.625 28.3125 C9.74791301 33.11261299 6.91535847 36.45226102 2.625 39.3125 C-2.65675121 41.07308374 -8.28457657 40.53959819 -13.8125 40.5625 C-15.05322266 40.583125 -16.29394531 40.60375 -17.57226562 40.625 C-18.76400391 40.63015625 -19.95574219 40.6353125 -21.18359375 40.640625 C-22.27470459 40.6499707 -23.36581543 40.65931641 -24.48999023 40.66894531 C-27.74293788 40.26704097 -29.12995066 39.68546377 -31.375 37.3125 C-31.73624503 32.76081257 -31.48474263 29.75147052 -30.375 25.3125 C-27.405 25.3125 -24.435 25.3125 -21.375 25.3125 C-21.705 27.2925 -22.035 29.2725 -22.375 31.3125 C-17.99252288 32.10931402 -13.70549361 32.45248781 -9.25 32.5625 C-8.25742187 32.58828125 -7.26484375 32.6140625 -6.2421875 32.640625 C-2.76184966 32.24233021 -1.02045497 31.6284499 1.625 29.3125 C2.52092083 25.71330577 2.52092083 25.71330577 2.625 22.3125 C1.43003906 22.34730469 0.23507812 22.38210937 -0.99609375 22.41796875 C-16.83654549 22.73907023 -16.83654549 22.73907023 -24.375 19.3125 C-25.375 18.3125 -25.375 18.3125 -25.6875 15.125 C-25.31567306 10.5887113 -24.29300518 8.76803245 -21.375 5.3125 C-14.26998877 -0.05250848 -8.60228084 0.0726544 0 0 Z " fill="#F9F9F9" transform="translate(579.375,57.6875)"/>
<path d="M0 0 C1.05638672 -0.00128906 2.11277344 -0.00257812 3.20117188 -0.00390625 C4.29880859 -0.00003906 5.39644531 0.00382812 6.52734375 0.0078125 C7.62884766 0.00394531 8.73035156 0.00007813 9.86523438 -0.00390625 C11.44788086 -0.00197266 11.44788086 -0.00197266 13.0625 0 C14.02679932 0.00112793 14.99109863 0.00225586 15.98461914 0.00341797 C19.5946638 0.19175576 21.14065322 0.80862197 23.71484375 3.3828125 C25.46484375 6.1328125 25.46484375 6.1328125 25.27734375 8.7578125 C25.00921875 9.5415625 24.74109375 10.3253125 24.46484375 11.1328125 C24.13484375 12.1228125 23.80484375 13.1128125 23.46484375 14.1328125 C20.82484375 14.1328125 18.18484375 14.1328125 15.46484375 14.1328125 C15.79484375 12.1528125 16.12484375 10.1728125 16.46484375 8.1328125 C8.54484375 8.4628125 0.62484375 8.7928125 -7.53515625 9.1328125 C-8.19515625 10.7828125 -8.85515625 12.4328125 -9.53515625 14.1328125 C-8.90013184 14.12233887 -8.26510742 14.11186523 -7.61083984 14.10107422 C-4.71065285 14.05928783 -1.81052943 14.03341479 1.08984375 14.0078125 C2.08886719 13.99105469 3.08789062 13.97429687 4.1171875 13.95703125 C9.30573084 13.92267004 13.61408024 14.03026313 18.46484375 16.1328125 C19.66242226 23.07876783 19.18542728 26.94654671 15.77734375 33.2578125 C12.23269385 37.66467454 9.02064389 39.82364147 3.42944336 40.5 C-0.12970481 40.63439392 -3.661576 40.62906369 -7.22265625 40.5703125 C-8.44533203 40.57740234 -9.66800781 40.58449219 -10.92773438 40.59179688 C-21.0834809 40.51929566 -21.0834809 40.51929566 -24.53515625 37.1328125 C-25.84102041 33.21522003 -25.72975874 31.58970529 -24.09765625 27.7578125 C-23.58203125 26.8915625 -23.06640625 26.0253125 -22.53515625 25.1328125 C-19.89515625 25.1328125 -17.25515625 25.1328125 -14.53515625 25.1328125 C-14.86515625 27.7728125 -15.19515625 30.4128125 -15.53515625 33.1328125 C-12.65989556 32.9911592 -9.78502089 32.84462718 -6.91015625 32.6953125 C-6.10191406 32.65599609 -5.29367187 32.61667969 -4.4609375 32.57617188 C-0.0836476 32.34485168 4.15031656 31.96360333 8.46484375 31.1328125 C8.79484375 28.4928125 9.12484375 25.8528125 9.46484375 23.1328125 C6.69671499 22.21010291 5.27133635 22.04242465 2.4453125 22.140625 C1.66994141 22.15738281 0.89457031 22.17414063 0.09570312 22.19140625 C-1.52172561 22.23536514 -3.13895823 22.2873339 -4.75585938 22.34765625 C-9.78821102 22.43922923 -13.17873502 21.96414435 -17.53515625 19.1328125 C-18.96819689 16.26673121 -18.8415978 14.31980467 -18.53515625 11.1328125 C-16.04969715 6.53011047 -12.88039042 2.23631119 -7.72485352 0.53564453 C-5.11361818 0.05526341 -2.6555942 0.00310259 0 0 Z " fill="#F9F9F9" transform="translate(667.53515625,57.8671875)"/>
<path d="M0 0 C1.13050781 0.17144531 2.26101562 0.34289062 3.42578125 0.51953125 C10.28740311 1.92472567 14.43270402 4.6529839 18.6875 10.1875 C21.61490653 16.04231305 21.17259648 22.97930981 19.6875 29.1875 C15.78277388 39.23696752 9.54464231 46.09760125 1.6875 53.1875 C-0.24969482 52.45391846 -0.24969482 52.45391846 -2.3125 51.1875 C-3.02130127 49.2789917 -3.02130127 49.2789917 -3.31738281 46.92480469 C-3.4372052 46.04338806 -3.55702759 45.16197144 -3.68048096 44.25384521 C-3.79107849 43.29867004 -3.90167603 42.34349487 -4.015625 41.359375 C-4.14314148 40.37761292 -4.27065796 39.39585083 -4.40203857 38.38433838 C-4.80602744 35.23729695 -5.18403393 32.08770173 -5.5625 28.9375 C-5.83173817 26.82922276 -6.10255265 24.72114618 -6.375 22.61328125 C-8.49142927 5.93470803 -8.49142927 5.93470803 -8.3125 0.1875 C-5.37485086 -1.28132457 -3.21481624 -0.5060696 0 0 Z " fill="#1077AA" transform="translate(98.3125,109.8125)"/>
<path d="M0 0 C1.2684375 0.433125 1.2684375 0.433125 2.5625 0.875 C1.98913764 7.3253266 -0.12713062 12.85645155 -2.4375 18.875 C-2.94799126 20.23776634 -3.45702252 21.6010802 -3.96484375 22.96484375 C-8.32475666 34.66356642 -8.32475666 34.66356642 -10.4375 39.875 C-13.0775 39.875 -15.7175 39.875 -18.4375 39.875 C-16.78636481 32.48241743 -14.81714731 25.66860575 -11.4375 18.875 C-12.159375 19.596875 -12.88125 20.31875 -13.625 21.0625 C-16.22916667 23.66666667 -18.83333333 26.27083333 -21.4375 28.875 C-21.9325 29.473125 -22.4275 30.07125 -22.9375 30.6875 C-25.0821571 32.38535354 -26.78744106 32.08986964 -29.4375 31.875 C-31.71126292 26.91406272 -33.22373966 22.19687227 -34.4375 16.875 C-34.67984375 17.63683594 -34.9221875 18.39867188 -35.171875 19.18359375 C-37.48817625 26.31958336 -40.0817632 33.16352641 -43.4375 39.875 C-45.75906597 40.28229228 -48.0943787 40.61938677 -50.4375 40.875 C-51.4375 38.875 -51.4375 38.875 -50.765625 36.84375 C-50.40984375 36.0290625 -50.0540625 35.214375 -49.6875 34.375 C-48.25863749 30.96621197 -47.00687467 27.61857182 -46 24.0625 C-43.71693615 16.13449806 -40.50577808 8.52448591 -37.4375 0.875 C-34.7975 0.875 -32.1575 0.875 -29.4375 0.875 C-27.53252381 6.24703286 -25.98789091 11.5128556 -24.96484375 17.125 C-24.79082031 17.7025 -24.61679687 18.28 -24.4375 18.875 C-23.7775 19.205 -23.1175 19.535 -22.4375 19.875 C-22.1075 18.885 -21.7775 17.895 -21.4375 16.875 C-19.1877186 14.38199899 -17.2898374 12.28899245 -14.25 10.8125 C-12.28210965 10.02224061 -12.28210965 10.02224061 -11.52734375 8.0234375 C-9.12411814 3.28589597 -5.3778401 -0.19555782 0 0 Z " fill="#FAFAFA" transform="translate(831.4375,58.125)"/>
<path d="M0 0 C1.41338621 0.0200917 2.82679993 0.03833777 4.24023438 0.0546875 C7.68156683 0.09848183 11.12185575 0.16736097 14.5625 0.25 C14.75830078 5.02441406 14.75830078 5.02441406 12.99609375 7.0546875 C9.71682435 8.66537199 7.2668951 8.5049312 3.625 8.375 C2.29176483 8.34210092 0.9584163 8.31354363 -0.375 8.2890625 C-1.38433594 8.27020996 -1.38433594 8.27020996 -2.4140625 8.25097656 C-7.43519241 8.24855324 -12.44260022 8.77830626 -17.4375 9.25 C-17.7675 10.9 -18.0975 12.55 -18.4375 14.25 C-9.1975 14.25 0.0425 14.25 9.5625 14.25 C7.5625 20.25 7.5625 20.25 6.5625 22.25 C-3.0075 22.25 -12.5775 22.25 -22.4375 22.25 C-23.4275 25.22 -24.4175 28.19 -25.4375 31.25 C-24.63006348 31.23428955 -23.82262695 31.2185791 -22.99072266 31.20239258 C-19.34805244 31.14020321 -15.70549366 31.10105991 -12.0625 31.0625 C-10.79148437 31.03736328 -9.52046875 31.01222656 -8.2109375 30.98632812 C-6.99921875 30.97666016 -5.7875 30.96699219 -4.5390625 30.95703125 C-3.41838379 30.9413208 -2.29770508 30.92561035 -1.14306641 30.90942383 C-0.25022949 31.02181396 0.64260742 31.1342041 1.5625 31.25 C2.2225 32.24 2.8825 33.23 3.5625 34.25 C2.49804688 36.71289062 2.49804688 36.71289062 0.5625 39.25 C-2.57617188 39.86523438 -2.57617188 39.86523438 -6.40625 39.84375 C-7.08296753 39.84379028 -7.75968506 39.84383057 -8.45690918 39.84387207 C-9.88591817 39.83851689 -11.31492641 39.82093329 -12.74365234 39.79199219 C-14.93027782 39.75013824 -17.11382289 39.75092134 -19.30078125 39.7578125 C-29.82210651 39.67834905 -29.82210651 39.67834905 -32.35083008 37.91821289 C-34.22349475 35.04337179 -33.74737429 32.59732334 -33.4375 29.25 C-32.73485499 26.35949497 -31.78316399 23.60014049 -30.75 20.8125 C-30.47599365 20.06331299 -30.2019873 19.31412598 -29.91967773 18.54223633 C-24.75225615 4.80292133 -24.75225615 4.80292133 -17.87426758 1.04614258 C-12.19541663 -0.80925597 -5.91667973 -0.14638069 0 0 Z " fill="#F8F8F8" transform="translate(770.4375,58.75)"/>
<path d="M0 0 C2.31 0 4.62 0 7 0 C8.36065278 4.08195834 6.77129402 6.42323615 5.0625 10.125 C2.99747791 13.96050943 2.99747791 13.96050943 2 18 C5.06206505 18.22236782 8.12376646 18.42834898 11.1875 18.625 C12.05181641 18.68945312 12.91613281 18.75390625 13.80664062 18.8203125 C20.19093382 19.31850904 20.19093382 19.31850904 26 17 C27.14116877 14.85694532 27.14116877 14.85694532 27.625 12.3125 C28.73178446 7.95493146 30.13464792 4.08600932 32 0 C34.31 0 36.62 0 39 0 C40.46501066 2.93002131 39.28396513 4.89707208 38.31030273 7.8671875 C33.35855939 22.04656945 33.35855939 22.04656945 27 26 C23.12253783 27.45404832 19.11915943 27.08076783 15 27 C14.896875 27.66 14.79375 28.32 14.6875 29 C13.80786436 32.83841009 12.43030104 36.33096691 11 40 C8.36 40 5.72 40 3 40 C2 38 2 38 2.77734375 35.6171875 C3.16019531 34.71226563 3.54304687 33.80734375 3.9375 32.875 C4.50791016 31.50988281 4.50791016 31.50988281 5.08984375 30.1171875 C5.39019531 29.41851562 5.69054687 28.71984375 6 28 C5.13375 27.896875 4.2675 27.79375 3.375 27.6875 C-0.37411799 26.92379078 -2.88180773 26.24799908 -6 24 C-8.10931537 17.20331713 -6.1376108 13.10090989 -3 7 C-2.4048469 5.65098631 -1.8202147 4.29724275 -1.25 2.9375 C-0.8375 1.968125 -0.425 0.99875 0 0 Z " fill="#F8F8F8" transform="translate(607,58)"/>
<path d="M0 0 C1.13917374 0.00666183 1.13917374 0.00666183 2.30136108 0.01345825 C3.59247299 0.01368484 3.59247299 0.01368484 4.90966797 0.01391602 C5.83991791 0.02423859 6.77016785 0.03456116 7.72860718 0.04519653 C8.68020721 0.04802643 9.63180725 0.05085632 10.61224365 0.05377197 C13.6589706 0.06498914 16.70540621 0.09009641 19.75204468 0.11550903 C21.81454044 0.12553685 23.8770408 0.13466304 25.93954468 0.14285278 C31.00215735 0.16493349 36.06455158 0.19947374 41.12704468 0.24050903 C41.71591187 2.10281372 41.71591187 2.10281372 42.12704468 4.24050903 C40.70516968 6.44363403 40.70516968 6.44363403 38.12704468 8.24050903 C35.26108209 8.68939474 32.74553357 8.93476102 29.87704468 8.99050903 C29.13196655 9.02015747 28.38688843 9.04980591 27.61923218 9.08035278 C25.78907796 9.15074333 23.95805699 9.19792735 22.12704468 9.24050903 C21.93594116 9.82953003 21.74483765 10.41855103 21.54794312 11.02542114 C20.66259493 13.74459071 19.76986505 16.46128417 18.87704468 19.17800903 C18.57669312 20.10420044 18.27634155 21.03039185 17.96688843 21.98464966 C16.01305659 27.9085015 13.78242215 33.59565107 11.12704468 39.24050903 C8.48704468 39.24050903 5.84704468 39.24050903 3.12704468 39.24050903 C4.98726294 31.82988343 7.31754279 24.67643788 9.94345093 17.50222778 C11.05804289 14.43066247 12.10791136 11.34487367 13.12704468 8.24050903 C12.57016968 8.2521106 12.01329468 8.26371216 11.43954468 8.27566528 C6.22926125 8.33727336 1.28324958 7.99050247 -3.87295532 7.24050903 C-3.99795532 4.86550903 -3.99795532 4.86550903 -3.87295532 2.24050903 C-1.87295532 0.24050903 -1.87295532 0.24050903 0 0 Z " fill="#F8F8F8" transform="translate(700.8729553222656,58.759490966796875)"/>
<path d="M0 0 C1.32 0 2.64 0 4 0 C4.29644585 9.50273655 3.67334932 18.77393484 2.78173828 28.2265625 C2.12744638 35.22714087 1.65595516 42.21321835 1.42993164 49.24121094 C1.25093846 53.48634095 0.5330384 57.03759026 -1 61 C-5.75 62.125 -5.75 62.125 -8 61 C-8.34807235 52.34975746 -7.26066909 43.92769373 -6.125 35.375 C-5.94863179 34.01439887 -5.77284791 32.65372187 -5.59765625 31.29296875 C-5.33532442 29.25598556 -5.07141966 27.21929111 -4.80157471 25.18328857 C-4.33157166 21.63084087 -3.88977375 18.07782877 -3.49121094 14.51660156 C-3.40733124 13.78736481 -3.32345154 13.05812805 -3.23703003 12.30679321 C-3.00515934 10.27758508 -2.78139159 8.24745583 -2.55810547 6.21728516 C-2 3 -2 3 0 0 Z " fill="#1A6D9E" transform="translate(51,122)"/>
<path d="M0 0 C2.125 0.375 2.125 0.375 4 1 C5.43396908 12.80915713 6.72295354 24.63100395 7.9465332 36.46386719 C8.06859131 37.62563477 8.19064941 38.78740234 8.31640625 39.984375 C8.42412354 41.02303711 8.53184082 42.06169922 8.64282227 43.13183594 C8.97434065 45.79395347 9.46283446 48.37337235 10 51 C10.375 54.625 10.375 54.625 10 58 C7.6875 60 7.6875 60 5 61 C4.01 60.67 3.02 60.34 2 60 C1.87153687 58.57905029 1.87153687 58.57905029 1.74047852 57.12939453 C1.41852469 53.5696184 1.09594686 50.00989902 0.77319336 46.45019531 C0.63435479 44.91798385 0.49567897 43.38575762 0.35717773 41.85351562 C0.1565298 39.63407423 -0.04468203 37.4146847 -0.24609375 35.1953125 C-0.34398949 34.11289276 -0.34398949 34.11289276 -0.44386292 33.00860596 C-0.79558326 29.14549092 -1.17488125 25.28689461 -1.5859375 21.4296875 C-2.00719311 17.27182842 -2.16608511 13.18018685 -2.1875 9 C-2.20167969 7.72125 -2.21585937 6.4425 -2.23046875 5.125 C-2 2 -2 2 0 0 Z " fill="#286D8D" transform="translate(84,109)"/>
<path d="M0 0 C2.125 0.375 2.125 0.375 4 1 C3.00556522 13.09023332 1.67313371 25.1088579 0 37.125 C-0.1659668 38.35186523 -0.33193359 39.57873047 -0.50292969 40.84277344 C-0.66696289 41.99036133 -0.83099609 43.13794922 -1 44.3203125 C-1.144375 45.34398926 -1.28875 46.36766602 -1.4375 47.42236328 C-2 50 -2 50 -4 53 C-5.65 52.67 -7.3 52.34 -9 52 C-10.11800129 47.10056588 -9.7536704 42.9499074 -8.85546875 38.07421875 C-8.72562088 37.32719193 -8.59577301 36.5801651 -8.46199036 35.8105011 C-8.04639037 33.43443319 -7.61693533 31.06110179 -7.1875 28.6875 C-6.90994535 27.10496864 -6.63324474 25.52228724 -6.35742188 23.93945312 C-2.61598753 2.61598753 -2.61598753 2.61598753 0 0 Z " fill="#20658F" transform="translate(43,128)"/>
<path d="M0 0 C8.97583514 8.20647784 12.9868089 18.25994748 14.38671875 30.3359375 C14.94687735 46.29079982 8.00330944 60.31730159 -2.67651367 71.78125 C-7.00624447 76.23057851 -11.72169264 79.76636119 -17 83 C-17.85851562 83.57621094 -18.71703125 84.15242188 -19.6015625 84.74609375 C-20.39304688 85.15988281 -21.18453125 85.57367188 -22 86 C-22.99 85.67 -23.98 85.34 -25 85 C-24.13375 84.484375 -23.2675 83.96875 -22.375 83.4375 C-19.07131018 81.27140149 -16.86484167 78.61830808 -14.4921875 75.48828125 C-12.70416731 73.70494175 -11.42788447 73.52165389 -9 73 C-6.8614515 70.8614515 -6.57344937 69.86724686 -6 67 C-3.525 66.505 -3.525 66.505 -1 66 C-0.566875 64.14375 -0.566875 64.14375 -0.125 62.25 C1.64165552 55.24514911 1.64165552 55.24514911 4.5 52.625 C6.57434017 50.37779814 7.06189019 47.87687007 8 45 C8.66 44.67 9.32 44.34 10 44 C9.91621094 43.24074219 9.83242187 42.48148438 9.74609375 41.69921875 C9.59333984 40.20841797 9.59333984 40.20841797 9.4375 38.6875 C9.33308594 37.70136719 9.22867188 36.71523437 9.12109375 35.69921875 C9 33 9 33 10 30 C9.64094193 27.31424567 9.21232946 24.71514483 8.6875 22.0625 C8.55666016 21.34642578 8.42582031 20.63035156 8.29101562 19.89257812 C7.60557766 16.31969135 6.87737318 13.13988615 5 10 C4.34 10 3.68 10 3 10 C0.96564469 6.27034861 0 4.33094958 0 0 Z " fill="#128F94" transform="translate(224,150)"/>
<path d="M0 0 C0.33 0.66 0.66 1.32 1 2 C0.13375 2.804375 0.13375 2.804375 -0.75 3.625 C-3.99897291 7.05447141 -6.50104573 10.50313718 -8 15 C-9.5159375 16.2375 -9.5159375 16.2375 -11.0625 17.5 C-12.031875 18.325 -13.00125 19.15 -14 20 C-14 20.99 -14 21.98 -14 23 C-16 25 -16 25 -17.5 26.25 C-19.5251333 28.61265552 -20.09476424 31.04289651 -21 34 C-21.391875 34.7425 -21.78375 35.485 -22.1875 36.25 C-22.5896875 37.11625 -22.5896875 37.11625 -23 38 C-22.67 38.66 -22.34 39.32 -22 40 C-22.9375 42.125 -22.9375 42.125 -24 44 C-23.34 44 -22.68 44 -22 44 C-22.185625 44.78375 -22.37125 45.5675 -22.5625 46.375 C-23.25962266 48.97089775 -23.25962266 48.97089775 -22 51 C-21.77095556 52.99595871 -21.54220286 54.99195251 -21.31640625 56.98828125 C-21.05632793 59.1281814 -21.05632793 59.1281814 -20 61.5 C-18.61032521 64.97418698 -18.37819623 68.28107042 -18 72 C-17.01 72.33 -16.02 72.66 -15 73 C-14.5875 73.86625 -14.175 74.7325 -13.75 75.625 C-11.52658915 79.91300663 -8.5140656 82.74587898 -5 86 C-8.538082 86 -8.84199131 85.5898825 -11.25 83.1875 C-20.78538025 73.14813559 -27.16729379 60.0317668 -27 46 C-25.85540405 29.83258227 -19.09031535 16.22457103 -7.12890625 5.40234375 C-4.79643127 3.52643834 -2.4467693 1.7231503 0 0 Z " fill="#1977A4" transform="translate(126,142)"/>
<path d="M0 0 C0.66 0.33 1.32 0.66 2 1 C3.72108002 9.30546083 3.11932755 18.25516542 3.0625 26.6875 C3.05798828 27.97333984 3.05347656 29.25917969 3.04882812 30.58398438 C3.03716001 33.72270653 3.02079015 36.86132728 3 40 C3.66 40 4.32 40 5 40 C5.08075665 42.29109597 5.13907731 44.58299267 5.1875 46.875 C5.22230469 48.15117187 5.25710937 49.42734375 5.29296875 50.7421875 C5.14794922 52.35480469 5.14794922 52.35480469 5 54 C2 56 2 56 -0.6875 55.625 C-1.450625 55.41875 -2.21375 55.2125 -3 55 C-2.88195095 49.05503441 -2.75771714 43.11024294 -2.62768555 37.16552734 C-2.58430605 35.14212584 -2.54263322 33.11868701 -2.50268555 31.09521484 C-2.44505592 28.19096616 -2.3813406 25.28690589 -2.31640625 22.3828125 C-2.29969376 21.47443634 -2.28298126 20.56606018 -2.26576233 19.63015747 C-2.24581711 18.78943695 -2.22587189 17.94871643 -2.20532227 17.08251953 C-2.18977798 16.34083527 -2.1742337 15.599151 -2.15821838 14.83499146 C-2 13 -2 13 -1 11 C-0.7724985 9.12943209 -0.59037189 7.25314042 -0.4375 5.375 C-0.31181641 3.87066406 -0.31181641 3.87066406 -0.18359375 2.3359375 C-0.12300781 1.56507812 -0.06242187 0.79421875 0 0 Z " fill="#1F6D96" transform="translate(68,125)"/>
<path d="M0 0 C1.08659912 0.00161133 2.17319824 0.00322266 3.29272461 0.00488281 C15.48081201 0.18855496 27.25575985 2.04864417 37.875 8.375 C34.26709127 9.57763624 33.49380722 8.7788814 30.20703125 7.27734375 C20.69297962 3.59602729 10.94820669 2.93934444 0.875 3.375 C-0.79685344 3.41879957 -2.46873051 3.46170248 -4.140625 3.50390625 C-5.92714874 3.56316401 -7.71360915 3.62436285 -9.5 3.6875 C-10.34449707 3.70973633 -11.18899414 3.73197266 -12.05908203 3.75488281 C-17.46376221 3.99261592 -21.26484239 5.00567317 -26.125 7.375 C-28.45373375 8.05755989 -30.78682791 8.72550775 -33.125 9.375 C-34.7994239 10.0219365 -36.46802621 10.68459426 -38.125 11.375 C-39.115 11.705 -40.105 12.035 -41.125 12.375 C-41.125 13.035 -41.125 13.695 -41.125 14.375 C-42.795625 15.055625 -42.795625 15.055625 -44.5 15.75 C-48.08699008 17.09965986 -48.08699008 17.09965986 -50.125 19.375 C-50.846875 19.6225 -51.56875 19.87 -52.3125 20.125 C-56.1996629 21.85262796 -59.01021861 24.52053175 -62.125 27.375 C-57.15111246 16.60991946 -44.8953679 9.93083553 -34.203125 5.76171875 C-22.9506476 1.74257333 -11.91992979 -0.01859148 0 0 Z " fill="#257F83" transform="translate(228.125,64.625)"/>
<path d="M0 0 C1.91296389 1.85658971 3.46189284 3.74913263 4.98828125 5.9296875 C3.99828125 5.9296875 3.00828125 5.9296875 1.98828125 5.9296875 C1.47265625 5.1871875 0.95703125 4.4446875 0.42578125 3.6796875 C-3.0374644 -0.227564 -7.15270254 -1.41045773 -12.01171875 -3.0703125 C-12.01171875 -3.7303125 -12.01171875 -4.3903125 -12.01171875 -5.0703125 C-13.33171875 -5.4003125 -14.65171875 -5.7303125 -16.01171875 -6.0703125 C-16.01171875 -6.7303125 -16.01171875 -7.3903125 -16.01171875 -8.0703125 C-31.30706829 -13.76577052 -53.62569889 -14.43462753 -69.01171875 -9.0703125 C-70.61115277 -8.77280251 -72.21556515 -8.5005778 -73.82421875 -8.2578125 C-78.5445536 -7.38921393 -82.00954362 -5.61232758 -86.00390625 -2.99609375 C-88.01171875 -2.0703125 -88.01171875 -2.0703125 -90.26953125 -2.42578125 C-90.84445313 -2.63847656 -91.419375 -2.85117188 -92.01171875 -3.0703125 C-63.11000803 -18.49611313 -26.88724082 -22.50394274 0 0 Z " fill="#208097" transform="translate(219.01171875,144.0703125)"/>
<path d="M0 0 C0.8523482 2.90454041 1.0355529 5.29945716 0.875 8.3125 C0.84387547 13.03564745 1.55551091 15.92585152 4 20 C6.9000525 21.74170298 6.9000525 21.74170298 10 23 C11.35308313 24.31328657 12.68870078 25.64499081 14 27 C16.13309192 28.23512079 16.13309192 28.23512079 18 29 C18 29.66 18 30.32 18 31 C19.299375 30.95875 20.59875 30.9175 21.9375 30.875 C26.79796843 30.8672972 31.34981376 31.57795644 36 33 C36.33 33.33 36.66 33.66 37 34 C39.28988781 34.15888092 41.58443441 34.25138073 43.87890625 34.31640625 C44.5655687 34.33718735 45.25223114 34.35796844 45.95970154 34.37937927 C48.16052935 34.44494143 50.36147975 34.50379015 52.5625 34.5625 C54.05144514 34.60567892 55.54037773 34.649293 57.02929688 34.69335938 C60.68606553 34.8006293 64.34297318 34.90187772 68 35 C65.19547661 36.56655081 63.04245942 37.27757817 59.83984375 37.44921875 C59.0519043 37.49344971 58.26396484 37.53768066 57.45214844 37.58325195 C56.62231445 37.61765381 55.79248047 37.65205566 54.9375 37.6875 C54.0805957 37.72512451 53.22369141 37.76274902 52.34082031 37.80151367 C34.55021435 38.47009286 15.93476974 35.08667101 2.37109375 22.62890625 C-0.95306186 18.67969574 -1.87767343 14.41898827 -2.3125 9.375 C-1.9968682 5.96617654 -1.24133444 3.18091951 0 0 Z " fill="#308295" transform="translate(165,92)"/>
<path d="M0 0 C1.32 0 2.64 0 4 0 C4.29643587 9.50241661 3.66922064 18.77175496 2.78393555 28.22436523 C2.13049247 35.25508918 1.64756307 42.27474568 1.34204102 49.32910156 C1.17157496 52.97785584 0.83776672 56.44122238 0 60 C-0.33 60 -0.66 60 -1 60 C-0.56403827 46.56670779 0.05186 33.15764944 1 19.75 C1.0829834 18.55536133 1.1659668 17.36072266 1.25146484 16.12988281 C1.37448975 14.44910645 1.37448975 14.44910645 1.5 12.734375 C1.5721875 11.74663086 1.644375 10.75888672 1.71875 9.74121094 C1.98881823 7.10898343 2.43456458 4.58333306 3 2 C2.01 2 1.02 2 0 2 C-0.029729 2.90540527 -0.029729 2.90540527 -0.06005859 3.82910156 C-1.10463968 34.10463968 -1.10463968 34.10463968 -4 37 C-4.2138753 39.16251695 -4.37021948 41.33081139 -4.5 43.5 C-5.28376206 55.30466238 -5.28376206 55.30466238 -6 60 C-6.99 60.495 -6.99 60.495 -8 61 C-8.34807235 52.34975746 -7.26066909 43.92769373 -6.125 35.375 C-5.94863179 34.01439887 -5.77284791 32.65372187 -5.59765625 31.29296875 C-5.33532442 29.25598556 -5.07141966 27.21929111 -4.80157471 25.18328857 C-4.33157166 21.63084087 -3.88977375 18.07782877 -3.49121094 14.51660156 C-3.40733124 13.78736481 -3.32345154 13.05812805 -3.23703003 12.30679321 C-3.00515934 10.27758508 -2.78139159 8.24745583 -2.55810547 6.21728516 C-2 3 -2 3 0 0 Z " fill="#2C6686" transform="translate(51,122)"/>
<path d="M0 0 C1.32 0.33 2.64 0.66 4 1 C3.59707476 7.55795569 2.74661612 13.98056277 1.5625 20.4375 C1.44028076 21.12328125 1.31806152 21.8090625 1.19213867 22.515625 C0.53805223 25.96328532 -0.20719083 28.96541824 -2 32 C-3.32 31.67 -4.64 31.34 -6 31 C-6.98883399 27.86646527 -6.96697959 25.69047869 -6.328125 22.48046875 C-6.15796875 21.62259766 -5.9878125 20.76472656 -5.8125 19.88085938 C-5.626875 18.99205078 -5.44125 18.10324219 -5.25 17.1875 C-4.99476562 15.87168945 -4.99476562 15.87168945 -4.734375 14.52929688 C-3.6794745 9.34399552 -2.27002988 4.7814135 0 0 Z " fill="#1C6797" transform="translate(33,139)"/>
<path d="M0 0 C2.125 0.375 2.125 0.375 4 1 C2.91792286 13.04028275 1.72788612 25.03346951 0 37 C-0.33 37 -0.66 37 -1 37 C-1 31.39 -1 25.78 -1 20 C-2.32 22.64 -3.64 25.28 -5 28 C-5.33 28 -5.66 28 -6 28 C-6.23736822 22.15282958 -5.36170139 16.89299115 -4.125 11.1875 C-3.95097656 10.32962891 -3.77695312 9.47175781 -3.59765625 8.58789062 C-3.42363281 7.76869141 -3.24960937 6.94949219 -3.0703125 6.10546875 C-2.91320801 5.36449951 -2.75610352 4.62353027 -2.59423828 3.86010742 C-2 2 -2 2 0 0 Z " fill="#1F628C" transform="translate(43,128)"/>
<path d="M0 0 C0.99 0.33 1.98 0.66 3 1 C-13.00298473 13.46315401 -31.84100063 19.15660828 -52 17 C-55.62532924 16.11445513 -58.87549001 15.06791241 -62 13 C-62.33 12.34 -62.66 11.68 -63 11 C-60.75 10.25 -60.75 10.25 -58 10 C-57.50113281 10.64710937 -57.00226563 11.29421875 -56.48828125 11.9609375 C-52.52970524 15.20485693 -48.38939899 14.5020575 -43.4375 14.375 C-42.47908203 14.37371094 -41.52066406 14.37242188 -40.53320312 14.37109375 C-34.94020466 14.41264537 -34.94020466 14.41264537 -30 12 C-28.9275 12.020625 -27.855 12.04125 -26.75 12.0625 C-22.28912755 11.98815213 -20.00776894 10.84973951 -16 9 C-15.01 9 -14.02 9 -13 9 C-13 8.34 -13 7.68 -13 7 C-11.68 7 -10.36 7 -9 7 C-8.67 6.01 -8.34 5.02 -8 4 C-5.69747517 2.93097061 -3.3627974 1.92824183 -1 1 C-0.67 0.67 -0.34 0.34 0 0 Z " fill="#287B96" transform="translate(157,88)"/>
<path d="M0 0 C8.97583514 8.20647784 12.9868089 18.25994748 14.38671875 30.3359375 C14.7117174 39.59279566 13.09567482 49.71662923 7 57 C7.76065819 50.40762902 7.76065819 50.40762902 9 48.296875 C10.51500352 44.81710128 10.47260596 41.24000371 10.625 37.5 C10.66367188 36.74074219 10.70234375 35.98148438 10.7421875 35.19921875 C10.90913719 31.79463766 11 28.40918427 11 25 C10.34 25 9.68 25 9 25 C8.87882813 24.25234375 8.75765625 23.5046875 8.6328125 22.734375 C8.46523437 21.74953125 8.29765625 20.7646875 8.125 19.75 C7.96257812 18.77546875 7.80015625 17.8009375 7.6328125 16.796875 C7.05144152 14.22735883 6.29159735 12.27928944 5 10 C4.34 10 3.68 10 3 10 C0.96564469 6.27034861 0 4.33094958 0 0 Z " fill="#27817F" transform="translate(224,150)"/>
<path d="M0 0 C1.13050781 0.17144531 2.26101562 0.34289062 3.42578125 0.51953125 C7.58715706 1.37174115 10.69987349 2.02959306 13.5 5.3125 C13.891875 5.93125 14.28375 6.55 14.6875 7.1875 C8.22271127 5.53961268 8.22271127 5.53961268 5.3125 3.625 C2.614546 2.147549 1.03633475 1.88266004 -1.9765625 1.59765625 C-2.78818848 1.51781494 -3.59981445 1.43797363 -4.43603516 1.35571289 C-5.05526855 1.30020264 -5.67450195 1.24469238 -6.3125 1.1875 C-5.83822253 4.95896518 -5.35724135 8.72954552 -4.875 12.5 C-4.74029297 13.57185547 -4.60558594 14.64371094 -4.46679688 15.74804688 C-4.33466797 16.77607422 -4.20253906 17.80410156 -4.06640625 18.86328125 C-3.94595947 19.81114502 -3.8255127 20.75900879 -3.70141602 21.7355957 C-3.36077548 24.31551191 -3.36077548 24.31551191 -2.3125 27.1875 C-2.16414052 28.95916975 -2.06479982 30.73517612 -1.99609375 32.51171875 C-1.93325195 34.05375977 -1.93325195 34.05375977 -1.86914062 35.62695312 C-1.82982422 36.69880859 -1.79050781 37.77066406 -1.75 38.875 C-1.70681641 39.95845703 -1.66363281 41.04191406 -1.61914062 42.15820312 C-1.51303162 44.83450791 -1.41097639 47.51090526 -1.3125 50.1875 C0.3375 50.1875 1.9875 50.1875 3.6875 50.1875 C3.0275 51.1775 2.3675 52.1675 1.6875 53.1875 C-0.24969482 52.45391846 -0.24969482 52.45391846 -2.3125 51.1875 C-3.02130127 49.2789917 -3.02130127 49.2789917 -3.31738281 46.92480469 C-3.4372052 46.04338806 -3.55702759 45.16197144 -3.68048096 44.25384521 C-3.79107849 43.29867004 -3.90167603 42.34349487 -4.015625 41.359375 C-4.14314148 40.37761292 -4.27065796 39.39585083 -4.40203857 38.38433838 C-4.80602744 35.23729695 -5.18403393 32.08770173 -5.5625 28.9375 C-5.83173817 26.82922276 -6.10255265 24.72114618 -6.375 22.61328125 C-8.49142927 5.93470803 -8.49142927 5.93470803 -8.3125 0.1875 C-5.37485086 -1.28132457 -3.21481624 -0.5060696 0 0 Z " fill="#236282" transform="translate(98.3125,109.8125)"/>
<path d="M0 0 C5.8231125 1.54141213 9.1070679 5.91593716 12.1484375 10.87109375 C14.22331595 16.05828987 13.93777074 22.41144276 12.0546875 27.609375 C9.67188689 32.07525288 6.87897739 35.75004597 3 39 C2.34 39 1.68 39 1 39 C1.33 37.35 1.66 35.7 2 34 C3.98 33.505 3.98 33.505 6 33 C6.13277344 32.28972656 6.26554687 31.57945313 6.40234375 30.84765625 C6.57894531 29.92855469 6.75554687 29.00945312 6.9375 28.0625 C7.11152344 27.14597656 7.28554688 26.22945312 7.46484375 25.28515625 C8 23 8 23 9 22 C9.38020705 16.39194604 9.1290677 12.86743864 6 8 C5.01 7.34 4.02 6.68 3 6 C2.67 5.01 2.34 4.02 2 3 C1.34 2.67 0.68 2.34 0 2 C0 1.34 0 0.68 0 0 Z " fill="#248981" transform="translate(266,74)"/>
<path d="M0 0 C0.99 0.33 1.98 0.66 3 1 C4.35067975 11.06979989 5.31860272 20.82241303 5 31 C3.35 31.33 1.7 31.66 0 32 C0 27.38 0 22.76 0 18 C-0.66 17.67 -1.32 17.34 -2 17 C-1.67 16.67 -1.34 16.34 -1 16 C-0.76321284 13.30764224 -0.57801975 10.63501844 -0.4375 7.9375 C-0.39431641 7.17888672 -0.35113281 6.42027344 -0.30664062 5.63867188 C-0.20026367 3.75934562 -0.09960066 1.87969756 0 0 Z " fill="#19729C" transform="translate(77,142)"/>
<path d="M0 0 C0.66 0 1.32 0 2 0 C1.9278125 1.26070312 1.855625 2.52140625 1.78125 3.8203125 C1.07433177 16.89136919 0.8768271 29.91145778 1 43 C1.99 43.33 2.98 43.66 4 44 C4.33 34.43 4.66 24.86 5 15 C5.66 14.67 6.32 14.34 7 14 C6.90638035 18.07549941 6.80026839 22.15046336 6.68261719 26.2253418 C6.6443565 27.61131907 6.60949844 28.99739465 6.578125 30.38354492 C6.53241301 32.3770164 6.47341075 34.37016914 6.4140625 36.36328125 C6.3826416 37.56251221 6.3512207 38.76174316 6.31884766 39.99731445 C6 43 6 43 4 46 C0.875 46.1875 0.875 46.1875 -2 46 C-4.20781949 42.50703185 -4.0126105 40.49855237 -3.25 36.5 C-1.97542411 28.73667412 -1.40953133 20.97136766 -0.875 13.125 C-0.78766602 11.84560547 -0.70033203 10.56621094 -0.61035156 9.24804688 C-0.40302336 6.16560109 -0.19937686 3.08296885 0 0 Z " fill="#2E6885" transform="translate(56,137)"/>
<path d="M0 0 C1.33583899 4.84241633 2.25328119 8.93437617 2 14 C1.34 14 0.68 14 0 14 C0.165 14.99 0.33 15.98 0.5 17 C1.08474517 21.02732942 1.07132024 24.93474623 1 29 C0.34 29.33 -0.32 29.66 -1 30 C-1.33 25.38 -1.66 20.76 -2 16 C-2.66 21.28 -3.32 26.56 -4 32 C-4.33 32 -4.66 32 -5 32 C-5.02691685 29.54159395 -5.04679802 27.08348118 -5.0625 24.625 C-5.07087891 23.92632812 -5.07925781 23.22765625 -5.08789062 22.5078125 C-5.11328125 17.2265625 -5.11328125 17.2265625 -4 15 C-4.66 15 -5.32 15 -6 15 C-5.67 12.36 -5.34 9.72 -5 7 C-4.34 7 -3.68 7 -3 7 C-3 5.02 -3 3.04 -3 1 C-1 0 -1 0 0 0 Z " fill="#2A6F95" transform="translate(62,122)"/>
<path d="M0 0 C7.85806355 3.54452585 14.76113802 8.18555432 19.75 15.3125 C18.76 15.3125 17.77 15.3125 16.75 15.3125 C16.234375 14.57 15.71875 13.8275 15.1875 13.0625 C11.72425435 9.1552485 7.60901621 7.97235477 2.75 6.3125 C2.75 5.6525 2.75 4.9925 2.75 4.3125 C1.43 3.9825 0.11 3.6525 -1.25 3.3125 C-1.25 2.6525 -1.25 1.9925 -1.25 1.3125 C-13.51927325 -2.3103169 -25.48681138 -3.97004265 -38.25 -4.6875 C-28.42501802 -10.77522807 -9.79541017 -3.90542897 0 0 Z " fill="#358292" transform="translate(204.25,134.6875)"/>
<path d="M0 0 C4.63824352 0.79512746 8.53731134 1.70939236 12.125 4.875 C19.74466542 10.50692662 28.00459611 11.3967735 37.25 11.78515625 C42.58191663 12.09063064 47.76115126 12.99515564 53 14 C53 14.33 53 14.66 53 15 C34.30650736 15.61104637 15.04183182 13.28221927 0 1 C0 0.67 0 0.34 0 0 Z " fill="#216C83" transform="translate(121,229)"/>
<path d="M0 0 C2.125 0.375 2.125 0.375 4 1 C5.1741788 10.03698325 6.28994872 18.86661545 6 28 C2.56310146 24.56310146 2.94775438 20.12390528 2.90234375 15.4765625 C2.9089178 13.8593459 2.92073536 12.24214306 2.9375 10.625 C2.94201172 9.79355469 2.94652344 8.96210937 2.95117188 8.10546875 C2.96286836 6.07028103 2.98080065 4.03513077 3 2 C2.01 2.33 1.02 2.66 0 3 C-0.17239006 7.05116652 0.02785112 10.49413554 1 14.4375 C2.04985701 18.74043508 2.16069158 22.58098162 2 27 C1.67 27 1.34 27 1 27 C-2.22516588 18.84109822 -2.83646974 10.69059468 -2 2 C-1.34 1.34 -0.68 0.68 0 0 Z " fill="#2E708D" transform="translate(84,109)"/>
<path d="M0 0 C0.66 0.33 1.32 0.66 2 1 C3.58405366 8.84702814 3.12316286 17.22200002 3.0625 25.1875 C3.05798828 26.33025391 3.05347656 27.47300781 3.04882812 28.65039062 C3.03718268 31.4336511 3.02082997 34.21679572 3 37 C2.34 37 1.68 37 1 37 C-0.52551423 32.4234573 -0.41933404 27.79685618 -0.625 23 C-0.6765625 22.00871094 -0.728125 21.01742187 -0.78125 19.99609375 C-1.08073351 13.24009821 -0.7849297 6.7156933 0 0 Z " fill="#1372A2" transform="translate(68,125)"/>
<path d="M0 0 C0.99 0 1.98 0 3 0 C3.15457298 16.02406534 2.68503035 31.99105928 2 48 C1.01 48.495 1.01 48.495 0 49 C0 35.8 0 22.6 0 9 C-0.33 10.65 -0.66 12.3 -1 14 C-1.33 14 -1.66 14 -2 14 C-2 11.69 -2 9.38 -2 7 C-1.34 7 -0.68 7 0 7 C0 4.69 0 2.38 0 0 Z " fill="#1B516A" transform="translate(64,129)"/>
<path d="M0 0 C0.99 0 1.98 0 3 0 C3.04898438 1.2065625 3.09796875 2.413125 3.1484375 3.65625 C3.22353532 5.27085306 3.29908003 6.88543539 3.375 8.5 C3.4059375 9.29148437 3.436875 10.08296875 3.46875 10.8984375 C3.72927876 16.19585568 4.64274582 20.87746004 6 26 C6.15165396 28.36534914 6.09887296 30.62704905 6 33 C5.34 31.68 4.68 30.36 4 29 C3.34 29.33 2.68 29.66 2 30 C1.95101562 29.16597656 1.90203125 28.33195312 1.8515625 27.47265625 C1.45378185 21.48537165 0.85355697 15.83024536 -0.5859375 10.0078125 C-1.22052052 6.93068351 -1.19575392 4.13206269 -1 1 C-0.67 0.67 -0.34 0.34 0 0 Z " fill="#1D749C" transform="translate(84,111)"/>
<path d="M0 0 C1.94824219 0.65966797 1.94824219 0.65966797 4 2 C4.63769531 4.43017578 4.63769531 4.43017578 4.828125 7.4453125 C4.90546875 8.52167969 4.9828125 9.59804687 5.0625 10.70703125 C5.124375 11.83496094 5.18625 12.96289062 5.25 14.125 C5.32734375 15.26066406 5.4046875 16.39632812 5.484375 17.56640625 C5.6733189 20.3769468 5.84441468 23.18744746 6 26 C1.76400625 21.76400625 2.94485727 13.56217173 2.9375 7.875 C2.9532554 6.24994283 2.9721976 4.62489571 3 3 C2.01 3 1.02 3 0 3 C-0.33 5.64 -0.66 8.28 -1 11 C-1.66 11 -2.32 11 -3 11 C-3 11.99 -3 12.98 -3 14 C-2.01 14.33 -1.02 14.66 0 15 C0 16.32 0 17.64 0 19 C-1.65 18.67 -3.3 18.34 -5 18 C-5 14.7 -5 11.4 -5 8 C-4.01 8.33 -3.02 8.66 -2 9 C-2.04125 7.88625 -2.0825 6.7725 -2.125 5.625 C-2 2 -2 2 0 0 Z " fill="#356981" transform="translate(76,110)"/>
<path d="M0 0 C3.63483971 2.42816176 4.85936911 4.25082306 5.7421875 8.6328125 C6.71331791 17.54955534 4.48975428 24.36244751 0 32 C-1.11328125 30.296875 -1.11328125 30.296875 -2 28 C-1.35546875 25.703125 -1.35546875 25.703125 -0.1875 23.25 C3.58804048 14.4660895 3.26395104 8.99891587 0 0 Z " fill="#1B71A1" transform="translate(113,117)"/>
<path d="M0 0 C1.97993541 0.30759178 3.95893599 0.6212068 5.9375 0.9375 C7.03964844 1.11152344 8.14179688 1.28554687 9.27734375 1.46484375 C12 2 12 2 13 3 C15.28988781 3.15888092 17.58443441 3.25138073 19.87890625 3.31640625 C20.5655687 3.33718735 21.25223114 3.35796844 21.95970154 3.37937927 C24.16052935 3.44494143 26.36147975 3.50379015 28.5625 3.5625 C30.05144514 3.60567892 31.54037773 3.649293 33.02929688 3.69335938 C36.68606553 3.8006293 40.34297318 3.90187772 44 4 C40.18348337 6.08731319 36.72450801 6.46012735 32.4375 6.6875 C31.76525391 6.73455078 31.09300781 6.78160156 30.40039062 6.83007812 C27.25457613 7.02063888 25.02005632 7.00668544 22 6 C20.33556245 5.8481763 18.66824198 5.72684035 17 5.625 C11.09268419 5.14389684 5.65070877 3.73783887 0 2 C0 1.34 0 0.68 0 0 Z " fill="#1F8796" transform="translate(189,123)"/>
<path d="M0 0 C2.0625 0.75 2.0625 0.75 3.31762695 2.27856445 C5.85766195 4.42055283 7.76222805 4.09097959 11.04296875 4.04296875 C12.78803711 4.0284668 12.78803711 4.0284668 14.56835938 4.01367188 C16.39077148 3.9759668 16.39077148 3.9759668 18.25 3.9375 C20.08981445 3.91719727 20.08981445 3.91719727 21.96679688 3.89648438 C24.99913664 3.86108741 28.03059996 3.8117076 31.0625 3.75 C31.0625 4.41 31.0625 5.07 31.0625 5.75 C20.90290967 8.28474566 8.1972062 8.26621224 -1.3203125 3.8203125 C-2.9375 2.75 -2.9375 2.75 -3.9375 0.75 C-1.9375 -0.25 -1.9375 -0.25 0 0 Z " fill="#26719B" transform="translate(97.9375,98.25)"/>
<path d="M0 0 C2.35307813 2.35307813 2.54628975 3.59680647 3.1875 6.8125 C3.36667969 7.66457031 3.54585938 8.51664063 3.73046875 9.39453125 C4.0177498 12.17158136 3.68180665 14.30662196 3 17 C1.35 17.33 -0.3 17.66 -2 18 C-2.20852314 11.59370576 -2.1583195 6.07027358 0 0 Z " fill="#1A739C" transform="translate(89,150)"/>
<path d="M0 0 C0.66 0.66 1.32 1.32 2 2 C2.33 2 2.66 2 3 2 C3.33 5.3 3.66 8.6 4 12 C2.68 12.33 1.36 12.66 0 13 C-0.66 10.69 -1.32 8.38 -2 6 C-2.66 6 -3.32 6 -4 6 C-4 7.98 -4 9.96 -4 12 C-4.66 12 -5.32 12 -6 12 C-6.08131463 10.56344146 -6.13933559 9.1255517 -6.1875 7.6875 C-6.22230469 6.88699219 -6.25710937 6.08648437 -6.29296875 5.26171875 C-6 3 -6 3 -4.67578125 1.20703125 C-3 0 -3 0 0 0 Z " fill="#2D627D" transform="translate(63,117)"/>
<path d="M0 0 C0.99 0 1.98 0 3 0 C3 6.27 3 12.54 3 19 C2.34 19 1.68 19 1 19 C0.71125 17.88625 0.4225 16.7725 0.125 15.625 C-0.69241329 11.99708908 -0.69241329 11.99708908 -3 10 C-2.01 6.7 -1.02 3.4 0 0 Z " fill="#20719D" transform="translate(76,113)"/>
<path d="M0 0 C1.65643356 5.40008591 0.91645931 10.98906577 0.6875 16.5625 C0.65205078 17.71169922 0.61660156 18.86089844 0.58007812 20.04492188 C0.53689453 21.14513672 0.49371094 22.24535156 0.44921875 23.37890625 C0.41143311 24.3851001 0.37364746 25.39129395 0.3347168 26.42797852 C0 29 0 29 -2 32 C-5.125 32.1875 -5.125 32.1875 -8 32 C-8.66 30.68 -9.32 29.36 -10 28 C-9.01 26.515 -9.01 26.515 -8 25 C-7.67 26.65 -7.34 28.3 -7 30 C-5.35 30 -3.7 30 -2 30 C-1.97494385 29.12674072 -1.9498877 28.25348145 -1.92407227 27.35375977 C-1.82912291 24.12397448 -1.72987971 20.89435846 -1.62768555 17.66479492 C-1.58428566 16.26510801 -1.54261436 14.86536641 -1.50268555 13.46557617 C-1.44510555 11.45738505 -1.38086 9.44938851 -1.31640625 7.44140625 C-1.27974854 6.23170166 -1.24309082 5.02199707 -1.20532227 3.77563477 C-1 1 -1 1 0 0 Z " fill="#215471" transform="translate(62,151)"/>
<path d="M0 0 C1.13050781 0.17144531 2.26101562 0.34289062 3.42578125 0.51953125 C7.58715706 1.37174115 10.69987349 2.02959306 13.5 5.3125 C13.891875 5.93125 14.28375 6.55 14.6875 7.1875 C8.22271127 5.53961268 8.22271127 5.53961268 5.3125 3.625 C1.49356385 1.53367782 -1.98616368 1.51036092 -6.3125 1.1875 C-6.3125 5.8075 -6.3125 10.4275 -6.3125 15.1875 C-6.6425 15.1875 -6.9725 15.1875 -7.3125 15.1875 C-7.6425 10.2375 -7.9725 5.2875 -8.3125 0.1875 C-5.37485086 -1.28132457 -3.21481624 -0.5060696 0 0 Z " fill="#346F8F" transform="translate(98.3125,109.8125)"/>
<path d="M0 0 C2.03221693 2.03221693 2.55945205 3.11237641 3.5 5.75 C3.7578125 6.45769531 4.015625 7.16539062 4.28125 7.89453125 C4.90620476 9.72524113 5.45965311 11.58005757 6 13.4375 C6.33 14.283125 6.66 15.12875 7 16 C7.99 16.33 8.98 16.66 10 17 C10.61875 18.299375 10.61875 18.299375 11.25 19.625 C13.47341085 23.91300663 16.4859344 26.74587898 20 30 C16.461918 30 16.15800869 29.5898825 13.75 27.1875 C6.86020943 19.97657512 0 10.27322544 0 0 Z " fill="#296C89" transform="translate(101,198)"/>
<path d="M0 0 C0.66 0 1.32 0 2 0 C2.09765625 6.15234375 2.09765625 6.15234375 2 8 C1.67 8.33 1.34 8.66 1 9 C0.7861247 11.16251695 0.62978052 13.33081139 0.5 15.5 C-0.28376206 27.30466238 -0.28376206 27.30466238 -1 32 C-1.99 32.495 -1.99 32.495 -3 33 C-3.22479546 25.49224793 -2.54907902 18.30361363 -1.5 10.875 C-1.35691406 9.823125 -1.21382812 8.77125 -1.06640625 7.6875 C-0.71685503 5.12412438 -0.36129594 2.56174192 0 0 Z " fill="#295E77" transform="translate(46,150)"/>
<path d="M0 0 C1.03125 0.144375 2.0625 0.28875 3.125 0.4375 C-1.32661674 5.50313284 -6.84217995 9.4304287 -12.875 12.4375 C-13.865 12.1075 -14.855 11.7775 -15.875 11.4375 C-15.00875 10.921875 -14.1425 10.40625 -13.25 9.875 C-10.55429592 8.12626456 -8.86399228 6.24750187 -6.9375 3.6875 C-4.46705958 0.61419349 -4.22319906 0.4768128 0 0 Z " fill="#238289" transform="translate(214.875,223.5625)"/>
<path d="M0 0 C3.93598137 1.31199379 6.51437738 2.62665501 9 6 C10.22573422 11.42825156 10.21773256 14.78180574 8 20 C7.67 20 7.34 20 7 20 C7 16.04 7 12.08 7 8 C6.01 7.67 5.02 7.34 4 7 C3.67 6.01 3.34 5.02 3 4 C2.01 3.34 1.02 2.68 0 2 C0 1.34 0 0.68 0 0 Z " fill="#2A7C8F" transform="translate(160,60)"/>
<path d="M0 0 C0.33 0 0.66 0 1 0 C1.10477512 5.78591511 0.99250545 11.29309366 0 17 C-1.32 17 -2.64 17 -4 17 C-4.56131481 10.54487966 -2.63463787 5.84560277 0 0 Z " fill="#126DA1" transform="translate(39,162)"/>
<path d="M0 0 C4.62383355 4.22750496 9.50927189 9.04963868 10.3125 15.515625 C10.3125 17.70113144 10.22634075 19.82712877 10 22 C7.98114319 18.10272859 6.5099424 14.11802472 5 10 C4.34 10 3.68 10 3 10 C0.96564469 6.27034861 0 4.33094958 0 0 Z " fill="#228989" transform="translate(224,150)"/>
<path d="M0 0 C0.33 0 0.66 0 1 0 C1 2.64 1 5.28 1 8 C1.99 8 2.98 8 4 8 C4.33 11.96 4.66 15.92 5 20 C4.67 19.34 4.34 18.68 4 18 C2.68 18 1.36 18 0 18 C0 12.06 0 6.12 0 0 Z " fill="#146FA6" transform="translate(67,160)"/>
<path d="M0 0 C1 2 1 2 0.51171875 3.98828125 C0.23972656 4.75527344 -0.03226562 5.52226562 -0.3125 6.3125 C-0.73402344 7.51132813 -0.73402344 7.51132813 -1.1640625 8.734375 C-2.06484488 11.17574781 -2.99357584 13.60006547 -4 16 C-4.66 16 -5.32 16 -6 16 C-6.66 17.32 -7.32 18.64 -8 20 C-7.69479473 13.285484 -4.82671135 4.82671135 0 0 Z " fill="#246E95" transform="translate(109,159)"/>
<path d="M0 0 C2.6323983 3.86220601 2.12779748 7.79876983 1.8125 12.25 C1.76424072 13.00982178 1.71598145 13.76964355 1.66625977 14.55249023 C1.26148255 19.83503162 0.34675094 24.20446548 -2 29 C-2.99 28.67 -3.98 28.34 -5 28 C-4.505 27.071875 -4.01 26.14375 -3.5 25.1875 C-1.78710148 22.13472484 -1.78710148 22.13472484 -2 19 C-1.34 19 -0.68 19 0 19 C-0.08378906 18.24074219 -0.16757813 17.48148438 -0.25390625 16.69921875 C-0.40666016 15.20841797 -0.40666016 15.20841797 -0.5625 13.6875 C-0.66691406 12.70136719 -0.77132812 11.71523437 -0.87890625 10.69921875 C-1 8 -1 8 0 5 C-0.31478446 3.66216607 -0.64587656 2.32796291 -1 1 C-0.67 0.67 -0.34 0.34 0 0 Z " fill="#129090" transform="translate(234,175)"/>
<path d="M0 0 C0.8523482 2.90454041 1.0355529 5.29945716 0.875 8.3125 C0.81353473 12.98386031 1.88647501 15.85423944 4 20 C4.391875 20.804375 4.78375 21.60875 5.1875 22.4375 C5.455625 22.953125 5.72375 23.46875 6 24 C2.15521125 22.54163185 0.8177085 20.63541701 -1 17 C-3.10523656 11.25844575 -2.17035581 5.56153676 0 0 Z " fill="#32798A" transform="translate(165,92)"/>
<path d="M0 0 C0.33 0.66 0.66 1.32 1 2 C0.25556641 2.61875 0.25556641 2.61875 -0.50390625 3.25 C-4.96075038 7.03874036 -8.85542737 10.96234936 -12.5546875 15.49609375 C-13.03164062 15.99238281 -13.50859375 16.48867187 -14 17 C-14.66 17 -15.32 17 -16 17 C-12.60574445 9.56575247 -6.72987826 4.39502254 0 0 Z " fill="#237191" transform="translate(126,142)"/>
<path d="M0 0 C1.32 0.33 2.64 0.66 4 1 C3.34 7.6 2.68 14.2 2 21 C1.67 21 1.34 21 1 21 C1 16.05 1 11.1 1 6 C0.01 6 -0.98 6 -2 6 C-1.125 1.125 -1.125 1.125 0 0 Z " fill="#27698B" transform="translate(43,128)"/>
<path d="M0 0 C1.32 0 2.64 0 4 0 C3.67 1.32 3.34 2.64 3 4 C2.01 3.67 1.02 3.34 0 3 C0 9.6 0 16.2 0 23 C-0.33 23 -0.66 23 -1 23 C-2.08759656 16.06657192 -2.58558306 9.00714642 -2 2 C-1.34 1.34 -0.68 0.68 0 0 Z " fill="#2C708E" transform="translate(68,113)"/>
<path d="M0 0 C0.33 0 0.66 0 1 0 C1 9.24 1 18.48 1 28 C2.32 28 3.64 28 5 28 C4.67 28.99 4.34 29.98 4 31 C2.35 30.67 0.7 30.34 -1 30 C-0.67 20.1 -0.34 10.2 0 0 Z " fill="#20698D" transform="translate(66,150)"/>
<path d="M0 0 C-1.07378906 0.38671875 -2.14757812 0.7734375 -3.25390625 1.171875 C-4.69022507 1.69758646 -6.12641622 2.22364683 -7.5625 2.75 C-8.26697266 3.00265625 -8.97144531 3.2553125 -9.69726562 3.515625 C-13.28555502 4.83849667 -16.52290545 6.24604834 -19.77734375 8.265625 C-23 10 -23 10 -25.4375 9.75 C-25.953125 9.5025 -26.46875 9.255 -27 9 C-5.98006645 -1.91362126 -5.98006645 -1.91362126 0 0 Z " fill="#28708A" transform="translate(154,132)"/>
<path d="M0 0 C-15.34672304 6.47832981 -15.34672304 6.47832981 -23 6 C-20.27589111 2.31132337 -16.28922583 1.74897549 -12.0625 0.75 C-11.34642578 0.564375 -10.63035156 0.37875 -9.89257812 0.1875 C-6.20475561 -0.71480319 -3.62007238 -1.11263473 0 0 Z " fill="#288589" transform="translate(256,121)"/>
<path d="M0 0 C0 0.66 0 1.32 0 2 C-0.99 2.33 -1.98 2.66 -3 3 C-3.928125 4.2065625 -3.928125 4.2065625 -4.875 5.4375 C-7.25536025 8.30793442 -8.60964866 8.65962854 -12 10 C-14.43910369 11.8852239 -16.72794862 13.91783188 -19 16 C-16.11545586 9.60079285 -7.5963389 0 0 0 Z " fill="#30798B" transform="translate(185,76)"/>
<path d="M0 0 C9.26102086 1.53176581 14.53609206 5.31174818 21 12 C20.01 12.33 19.02 12.66 18 13 C17.319375 11.88625 17.319375 11.88625 16.625 10.75 C12.996728 6.94895314 8.90162771 5.67441099 4 4 C4 3.34 4 2.68 4 2 C2.68 1.67 1.36 1.34 0 1 C0 0.67 0 0.34 0 0 Z " fill="#27858F" transform="translate(203,137)"/>
<path d="M0 0 C0.99 0.33 1.98 0.66 3 1 C2.21625 1.556875 1.4325 2.11375 0.625 2.6875 C-2.1956909 5.17239436 -2.76513527 6.54237875 -4 10 C-5.29788956 12.02318078 -6.62464661 14.02866014 -8 16 C-8.88297243 13.61597444 -9.0412284 12.19068137 -8.5 9.6875 C-6.32889008 5.79759473 -3.24611801 3.01177259 0 0 Z " fill="#21829E" transform="translate(174,84)"/>
<path d="M0 0 C0.66 0.33 1.32 0.66 2 1 C0.68 2.32 -0.64 3.64 -2 5 C-2.99 4.67 -3.98 4.34 -5 4 C-3.36587557 2.29159719 -2.13093906 1.06546953 0 0 Z M-5 5 C-5.7425 5.4125 -6.485 5.825 -7.25 6.25 C-9.90171685 7.93745618 -11.86674014 9.70872089 -14 12 C-14.66 11.67 -15.32 11.34 -16 11 C-14.625 9 -14.625 9 -13 7 C-12.34 7 -11.68 7 -11 7 C-11 6.34 -11 5.68 -11 5 C-7.25 3.875 -7.25 3.875 -5 5 Z " fill="#147CA1" transform="translate(138,137)"/>
<path d="M0 0 C-4.74973131 2.57277113 -9.88802204 4.29600735 -15 6 C-15 6.66 -15 7.32 -15 8 C-16.98 8.33 -18.96 8.66 -21 9 C-20.67 8.34 -20.34 7.68 -20 7 C-19.01 7 -18.02 7 -17 7 C-17 6.01 -17 5.02 -17 4 C-12.0251208 0.68341387 -5.96431647 -0.38479461 0 0 Z " fill="#228292" transform="translate(202,71)"/>
<path d="M0 0 C-2.62560777 3.93841165 -4.318386 3.82162542 -8.875 4.75 C-10.10992187 5.01296875 -11.34484375 5.2759375 -12.6171875 5.546875 C-15.58920835 5.94497479 -17.24216076 6.02552816 -20 5 C-17.60712296 4.1572257 -15.21128981 3.32562998 -12.8125 2.5 C-11.80219727 2.14228516 -11.80219727 2.14228516 -10.77148438 1.77734375 C-7.06795533 0.51272408 -3.92059464 -0.30451221 0 0 Z " fill="#27717D" transform="translate(210,67)"/>
<path d="M0 0 C3.29602538 1.7578802 3.99827399 2.99531512 5.3125 6.5625 C6.35873767 11.44797505 5.74212201 16.10600617 5 21 C4.67 21 4.34 21 4 21 C3.87882812 19.98679688 3.75765625 18.97359375 3.6328125 17.9296875 C3.46386217 16.5780849 3.29457331 15.22652458 3.125 13.875 C3.04636719 13.20984375 2.96773438 12.5446875 2.88671875 11.859375 C2.35611974 7.69621356 1.45813446 3.93328708 0 0 Z " fill="#30748F" transform="translate(113,117)"/>
<path d="M0 0 C2.97 0 5.94 0 9 0 C7 1.33333333 5 2.66666667 3 4 C2.41407366 7.11610554 2.41407366 7.11610554 2.3125 10.625 C2.24675781 11.81351563 2.18101563 13.00203125 2.11328125 14.2265625 C2.07589844 15.14179687 2.03851563 16.05703125 2 17 C1.67 17 1.34 17 1 17 C0.67 11.39 0.34 5.78 0 0 Z " fill="#1973A3" transform="translate(92,111)"/>
<path d="M0 0 C2 2 2 2 2.1953125 4.6015625 C2.17210938 5.59929687 2.14890625 6.59703125 2.125 7.625 C2.10695313 8.62789062 2.08890625 9.63078125 2.0703125 10.6640625 C2.03550781 11.82035156 2.03550781 11.82035156 2 13 C1.01 12.67 0.02 12.34 -1 12 C-1.02698189 10.37509046 -1.04638757 8.75005367 -1.0625 7.125 C-1.07410156 6.22007812 -1.08570312 5.31515625 -1.09765625 4.3828125 C-1 2 -1 2 0 0 Z " fill="#1375A6" transform="translate(89,150)"/>
<path d="M0 0 C1.32 0.33 2.64 0.66 4 1 C3.67 1.66 3.34 2.32 3 3 C2.01 2.67 1.02 2.34 0 2 C-0.66 6.62 -1.32 11.24 -2 16 C-2.66 16 -3.32 16 -4 16 C-3.6083965 10.04492601 -2.62875405 5.37180176 0 0 Z " fill="#2D6789" transform="translate(33,139)"/>
<path d="M0 0 C7.2274605 -0.24091535 13.90294338 0.65504172 21 2 C21 2.33 21 2.66 21 3 C18.24940619 3.08107646 15.50120979 3.14052813 12.75 3.1875 C11.58404297 3.22520508 11.58404297 3.22520508 10.39453125 3.26367188 C4.57002825 3.33834499 4.57002825 3.33834499 1.453125 1.48828125 C0.73382813 0.75158203 0.73382813 0.75158203 0 0 Z " fill="#217A91" transform="translate(153,241)"/>
<path d="M0 0 C0.33 0 0.66 0 1 0 C1.38999191 7.59762024 0.60758587 13.84466021 -2 21 C-2.33 21 -2.66 21 -3 21 C-3.15639125 15.93683317 -2.62766071 11.49601562 -1.5 6.5625 C-1.2215625 5.32628906 -0.943125 4.09007812 -0.65625 2.81640625 C-0.4396875 1.88699219 -0.223125 0.95757812 0 0 Z " fill="#295D7B" transform="translate(40,135)"/>
<path d="M0 0 C0.99 0.495 0.99 0.495 2 1 C2 2.65 2 4.3 2 6 C2.99 6.33 3.98 6.66 5 7 C5 8.32 5 9.64 5 11 C3.35 10.67 1.7 10.34 0 10 C0 6.7 0 3.4 0 0 Z " fill="#367A91" transform="translate(71,118)"/>
<path d="M0 0 C0.33 0 0.66 0 1 0 C1 4.29 1 8.58 1 13 C1.66 13.33 2.32 13.66 3 14 C3.33 13.34 3.66 12.68 4 12 C3.67 13.32 3.34 14.64 3 16 C1.68 15.67 0.36 15.34 -1 15 C-2.20220203 11.46905698 -1.79532349 8.87101018 -1.0625 5.25 C-0.86785156 4.26515625 -0.67320313 3.2803125 -0.47265625 2.265625 C-0.31667969 1.51796875 -0.16070313 0.7703125 0 0 Z " fill="#245E83" transform="translate(28,155)"/>
<path d="M0 0 C0.66 0 1.32 0 2 0 C3.5056904 5.80766296 4.21824777 10.9981863 4 17 C3.67 17 3.34 17 3 17 C1.03181664 11.17745757 -0.40214229 6.16618181 0 0 Z " fill="#236582" transform="translate(82,119)"/>
<path d="M0 0 C0.99 0 1.98 0 3 0 C2.73781251 4.4571874 2.42288711 6.51522698 -0.5625 9.9375 C-1.366875 10.618125 -2.17125 11.29875 -3 12 C-2.01 8.04 -1.02 4.08 0 0 Z " fill="#238888" transform="translate(228,204)"/>
<path d="M0 0 C0.625 1.8125 0.625 1.8125 1 4 C0.01 5.485 0.01 5.485 -1 7 C-1.20993972 10.84889483 -1.18005182 14.31233808 0 18 C-2.51096119 16.14407216 -3.04153747 14.85877262 -3.9375 11.8125 C-4.0169303 6.96725181 -2.46253412 4.06899415 0 0 Z " fill="#276D8F" transform="translate(94,81)"/>
<path d="M0 0 C0.99 0 1.98 0 3 0 C1.60846256 4.42761914 -0.52071486 6.9556255 -4 10 C-4.66 10 -5.32 10 -6 10 C-5.67 8.35 -5.34 6.7 -5 5 C-3.68 4.67 -2.36 4.34 -1 4 C-0.67 2.68 -0.34 1.36 0 0 Z " fill="#2C8581" transform="translate(273,103)"/>
<path d="M0 0 C0.66 0.66 1.32 1.32 2 2 C1.96712417 4.72869407 1.43602229 7.2966618 1 10 C0.34 10 -0.32 10 -1 10 C-1 7.69 -1 5.38 -1 3 C-1.66 2.67 -2.32 2.34 -3 2 C-2.01 1.34 -1.02 0.68 0 0 Z " fill="#1668A5" transform="translate(43,132)"/>
<path d="M0 0 C1.32 0.66 2.64 1.32 4 2 C-0.455 4.97 -0.455 4.97 -5 8 C-5.66 7.67 -6.32 7.34 -7 7 C-6.030625 6.401875 -5.06125 5.80375 -4.0625 5.1875 C-0.76947958 3.28872491 -0.76947958 3.28872491 0 0 Z " fill="#2B8484" transform="translate(263,112)"/>
<path d="M0 0 C0 0.99 0 1.98 0 3 C-3.89003364 6.14907485 -7.02833396 7.526508 -12 8 C-10.53244059 5.06488119 -8.30733209 4.39238248 -5.4375 2.875 C-4.42558594 2.33617188 -3.41367187 1.79734375 -2.37109375 1.2421875 C-1.58863281 0.83226563 -0.80617188 0.42234375 0 0 Z " fill="#15908F" transform="translate(262,113)"/>
<path d="M0 0 C-1 3 -1 3 -2.7421875 3.94921875 C-3.79792969 4.31466797 -3.79792969 4.31466797 -4.875 4.6875 C-5.92300781 5.06455078 -5.92300781 5.06455078 -6.9921875 5.44921875 C-9 6 -9 6 -12 6 C-4.8 0 -4.8 0 0 0 Z " fill="#24627F" transform="translate(116,65)"/>
<path d="M0 0 C3.3 0.33 6.6 0.66 10 1 C5.78370866 3.10814567 3.60209225 3.17700355 -1 3 C-0.67 2.01 -0.34 1.02 0 0 Z " fill="#247788" transform="translate(175,240)"/>
<path d="M0 0 C1.14814997 2.29629994 1.30769809 4.07698086 1.5625 6.625 C1.64628906 7.44226563 1.73007813 8.25953125 1.81640625 9.1015625 C1.87699219 9.72804687 1.93757813 10.35453125 2 11 C0.35 9.35 -1.3 7.7 -3 6 C-1.125 1.125 -1.125 1.125 0 0 Z " fill="#1278A8" transform="translate(110,206)"/>
<path d="M0 0 C0.66 0 1.32 0 2 0 C2 0.99 2 1.98 2 3 C3.32 3 4.64 3 6 3 C5.67 3.99 5.34 4.98 5 6 C3.35 5.67 1.7 5.34 0 5 C0 3.35 0 1.7 0 0 Z " fill="#337090" transform="translate(44,178)"/>
<path d="M0 0 C1.5 1.25 1.5 1.25 3 3 C3 4.32 3 5.64 3 7 C1.68 6.67 0.36 6.34 -1 6 C-1.042721 4.33388095 -1.04063832 2.66617115 -1 1 C-0.67 0.67 -0.34 0.34 0 0 Z " fill="#1573A3" transform="translate(79,166)"/>
<path d="M0 0 C0.99 0 1.98 0 3 0 C1.4169423 4.2742558 -1.50568404 6.26531794 -5 9 C-4.6875 7.125 -4.6875 7.125 -4 5 C-3.01 4.34 -2.02 3.68 -1 3 C-0.67 2.01 -0.34 1.02 0 0 Z " fill="#246F90" transform="translate(108,150)"/>
<path d="M0 0 C2.62187494 1.04874998 3.79371361 1.64931313 5.25 4.125 C5.4975 4.74375 5.745 5.3625 6 6 C4.68 6 3.36 6 2 6 C1.34 4.02 0.68 2.04 0 0 Z " fill="#138B96" transform="translate(215,144)"/>
<path d="M0 0 C0.66 0.33 1.32 0.66 2 1 C0.02 3.31 -1.96 5.62 -4 8 C-4.33 6.68 -4.66 5.36 -5 4 C-3.35 2.68 -1.7 1.36 0 0 Z " fill="#317A92" transform="translate(165,80)"/>
<path d="M0 0 C2.4294516 3.6441774 2.16179575 5.71241272 2 10 C1.34 10 0.68 10 0 10 C-1.125 2.25 -1.125 2.25 0 0 Z " fill="#206D90" transform="translate(94,134)"/>
<path d="M0 0 C1.60495567 0.11442461 3.20898119 0.24194694 4.8125 0.375 C5.70582031 0.44460937 6.59914062 0.51421875 7.51953125 0.5859375 C10 1 10 1 13 3 C9.7 3 6.4 3 3 3 C3 2.34 3 1.68 3 1 C2.01 0.67 1.02 0.34 0 0 Z " fill="#1B8697" transform="translate(186,132)"/>
<path d="M0 0 C1.32 0 2.64 0 4 0 C3.67 1.32 3.34 2.64 3 4 C2.01 3.67 1.02 3.34 0 3 C-0.33 3.99 -0.66 4.98 -1 6 C-1.625 4.125 -1.625 4.125 -2 2 C-1.34 1.34 -0.68 0.68 0 0 Z " fill="#34647F" transform="translate(68,113)"/>
<path d="M0 0 C0.66 0.33 1.32 0.66 2 1 C1.2884375 1.6496875 1.2884375 1.6496875 0.5625 2.3125 C-1.23686957 4.02309613 -1.23686957 4.02309613 -2 7 C-4.5625 8.1875 -4.5625 8.1875 -7 9 C-5.44499019 5.18315774 -2.96404505 2.80804268 0 0 Z " fill="#24698B" transform="translate(102,72)"/>
<path d="M0 0 C0.33 0.66 0.66 1.32 1 2 C1.639375 2.268125 2.27875 2.53625 2.9375 2.8125 C5.68156708 4.39241741 6.06890124 6.0515206 7 9 C5.82460004 8.07347299 4.65989423 7.13336613 3.5 6.1875 C2.52546875 5.40439453 2.52546875 5.40439453 1.53125 4.60546875 C0 3 0 3 0 0 Z " fill="#1C779E" transform="translate(112,217)"/>
<path d="M0 0 C-0.375 2.9375 -0.375 2.9375 -1 6 C-1.99 6.495 -1.99 6.495 -3 7 C-3 5.68 -3 4.36 -3 3 C-3.66 2.67 -4.32 2.34 -5 2 C-2 0 -2 0 0 0 Z " fill="#146FAE" transform="translate(104,186)"/>
<path d="M0 0 C0.66 0 1.32 0 2 0 C2 2.64 2 5.28 2 8 C1.01 8 0.02 8 -1 8 C-0.67 5.36 -0.34 2.72 0 0 Z " fill="#1B5876" transform="translate(46,150)"/>
<path d="M0 0 C2.0625 0.4375 2.0625 0.4375 4 1 C3.67 2.32 3.34 3.64 3 5 C2.67 4.01 2.34 3.02 2 2 C-0.33075929 2.95865509 -0.33075929 2.95865509 -2 6 C-1.125 1.125 -1.125 1.125 0 0 Z " fill="#396880" transform="translate(43,128)"/>
<path d="M0 0 C0.33 0 0.66 0 1 0 C1 1.98 1 3.96 1 6 C-0.98 6.99 -0.98 6.99 -3 8 C-1.125 1.125 -1.125 1.125 0 0 Z " fill="#1D809D" transform="translate(166,74)"/>
<path d="M0 0 C0.99 0.33 1.98 0.66 3 1 C-0.465 3.97 -0.465 3.97 -4 7 C-2.92598892 4.08482708 -2.22189824 2.22189824 0 0 Z " fill="#2C8084" transform="translate(222,217)"/>
<path d="M0 0 C2.97 0.495 2.97 0.495 6 1 C5.67 1.99 5.34 2.98 5 4 C3.35 3.67 1.7 3.34 0 3 C0 2.01 0 1.02 0 0 Z " fill="#2F6988" transform="translate(65,177)"/>
<path d="M0 0 C0.66 0.33 1.32 0.66 2 1 C0.68 3.64 -0.64 6.28 -2 9 C-2.66 7.68 -3.32 6.36 -4 5 C-2.68 3.35 -1.36 1.7 0 0 Z " fill="#2A7394" transform="translate(115,140)"/>
</svg>
