<?xml version="1.0" encoding="UTF-8"?>
<svg version="1.1" xmlns="http://www.w3.org/2000/svg" width="240" height="80">
<path d="M0 0 C79.2 0 158.4 0 240 0 C240 26.4 240 52.8 240 80 C160.8 80 81.6 80 0 80 C0 53.6 0 27.2 0 0 Z " fill="#FCFDFD" transform="translate(0,0)"/>
<path d="M0 0 C1 1 1 1 1.0625 3.5625 C1.041875 4.366875 1.02125 5.17125 1 6 C1.4640625 5.71125 1.928125 5.4225 2.40625 5.125 C7.56370353 2.35383094 12.37514889 1.53900246 18.1875 1.4375 C18.86425781 1.41107422 19.54101562 1.38464844 20.23828125 1.35742188 C24.05231785 1.38359664 26.52260919 2.03349009 29.4765625 4.34375 C32 7 32 7 32.1875 10.0625 C30.3512683 14.60475737 27.66202975 16.28230533 23.25 18.1875 C19.18778813 19.20305297 15.16605508 19.64819979 11 20 C11.928125 20.556875 12.85625 21.11375 13.8125 21.6875 C17.10187 24.07390568 18.50576496 25.26441241 20 29 C20.75757439 34.68180789 20.26963497 39.15192056 17 44 C11.13804565 49.55343044 5.7815753 50.40963102 -2.05859375 50.24609375 C-7.54901792 49.78673555 -10.64862543 48.12135336 -14.9375 44.5625 C-18.39117715 40.12689504 -17.38625738 34.30460142 -17 29 C-18.97536745 29.34786708 -18.97536745 29.34786708 -21 30 C-21.33 30.66 -21.66 31.32 -22 32 C-22.66 32 -23.32 32 -24 32 C-24 26.06 -24 20.12 -24 14 C-22.02 13.34 -20.04 12.68 -18 12 C-18.66 11.34 -19.32 10.68 -20 10 C-20.125 7.6875 -20.125 7.6875 -19 5 C-13.52237148 -0.36108323 -7.36040289 -0.90549772 0 0 Z " fill="#EDF5F8" transform="translate(45,18)"/>
<path d="M0 0 C6.67515275 5.78513238 6.67515275 5.78513238 7.30078125 10.05078125 C7.32705805 15.12220387 6.92172895 18.66778121 4 23 C-1.86195435 28.55343044 -7.2184247 29.40963102 -15.05859375 29.24609375 C-20.57086203 28.78490796 -23.6717787 27.13040111 -27.9375 23.5 C-30.6391165 19.86772631 -30.82632568 16.18119577 -30.609375 11.7578125 C-29.53581781 6.89927803 -26.86933828 3.99561673 -23 1 C-15.789295 -3.24327769 -7.68778573 -3.04610378 0 0 Z " fill="#118EAE" transform="translate(58,39)"/>
<path d="M0 0 C0.99773437 -0.01611328 1.99546875 -0.03222656 3.0234375 -0.04882812 C3.98507813 -0.04947266 4.94671875 -0.05011719 5.9375 -0.05078125 C6.81277344 -0.05376221 7.68804687 -0.05674316 8.58984375 -0.05981445 C11.51723801 0.39240154 12.89435595 1.24941555 15 3.3125 C15.31900332 6.43873255 15.41441874 8.48366253 14 11.3125 C12.35 11.3125 10.7 11.3125 9 11.3125 C9 9.6625 9 8.0125 9 6.3125 C-1.395 6.8075 -1.395 6.8075 -12 7.3125 C-12.66 8.6325 -13.32 9.9525 -14 11.3125 C-12.68644531 11.27769531 -11.37289062 11.24289063 -10.01953125 11.20703125 C-8.28386699 11.17888534 -6.54818885 11.15158604 -4.8125 11.125 C-3.51602539 11.08729492 -3.51602539 11.08729492 -2.19335938 11.04882812 C2.72698209 10.99227248 5.98693063 11.11973739 10 14.3125 C10.495 14.8075 10.495 14.8075 11 15.3125 C10.6832009 21.43728255 9.54723929 25.28724434 6 30.3125 C1.20323333 34.51211817 -4.60842607 33.75451629 -10.625 33.6875 C-11.67429688 33.69910156 -12.72359375 33.71070313 -13.8046875 33.72265625 C-15.31289062 33.71685547 -15.31289062 33.71685547 -16.8515625 33.7109375 C-17.76760254 33.70755371 -18.68364258 33.70416992 -19.62744141 33.70068359 C-22 33.3125 -22 33.3125 -23.80224609 32.00634766 C-25.78382226 29.20402898 -25.29566215 26.62391611 -25 23.3125 C-24.01 21.8275 -24.01 21.8275 -23 20.3125 C-20.375 20.125 -20.375 20.125 -18 20.3125 C-18.66 22.6225 -19.32 24.9325 -20 27.3125 C-12.74 26.9825 -5.48 26.6525 2 26.3125 C2.99 23.3425 3.98 20.3725 5 17.3125 C3.44667969 17.35890625 1.89335937 17.4053125 0.29296875 17.453125 C-1.74216831 17.49063905 -3.77732612 17.5270396 -5.8125 17.5625 C-6.83666016 17.59601562 -7.86082031 17.62953125 -8.91601562 17.6640625 C-9.89892578 17.67695312 -10.88183594 17.68984375 -11.89453125 17.703125 C-12.80050049 17.72407227 -13.70646973 17.74501953 -14.63989258 17.76660156 C-17 17.3125 -17 17.3125 -18.82299805 15.47167969 C-20 13.3125 -20 13.3125 -19.9375 10.375 C-18.68589853 6.28643519 -16.86525649 3.46202435 -13.1796875 1.19067383 C-8.99003378 -0.49729486 -4.4574443 -0.01439743 0 0 Z " fill="#2095B1" transform="translate(173,30.6875)"/>
<path d="M0 0 C1.11503906 0.00644531 2.23007813 0.01289063 3.37890625 0.01953125 C4.53777344 0.03628906 5.69664063 0.05304687 6.890625 0.0703125 C8.65212891 0.08384766 8.65212891 0.08384766 10.44921875 0.09765625 C13.34656036 0.12121187 16.24348941 0.15410598 19.140625 0.1953125 C18.265625 5.0703125 18.265625 5.0703125 17.140625 6.1953125 C15.28887794 6.35317558 13.4315339 6.44638606 11.57421875 6.51171875 C9.8871582 6.57456055 9.8871582 6.57456055 8.16601562 6.63867188 C6.98201172 6.67798828 5.79800781 6.71730469 4.578125 6.7578125 C3.39025391 6.80099609 2.20238281 6.84417969 0.97851562 6.88867188 C-1.96732284 6.99514796 -4.9132493 7.09716091 -7.859375 7.1953125 C-8.189375 8.5153125 -8.519375 9.8353125 -8.859375 11.1953125 C-0.939375 11.1953125 6.980625 11.1953125 15.140625 11.1953125 C14.810625 13.1753125 14.480625 15.1553125 14.140625 17.1953125 C5.560625 17.1953125 -3.019375 17.1953125 -11.859375 17.1953125 C-12.519375 20.8253125 -13.179375 24.4553125 -13.859375 28.1953125 C-6.269375 28.1953125 1.320625 28.1953125 9.140625 28.1953125 C8.810625 29.8453125 8.480625 31.4953125 8.140625 33.1953125 C4.03659137 33.28225292 -0.06720629 33.33568399 -4.171875 33.3828125 C-5.92274414 33.42051758 -5.92274414 33.42051758 -7.70898438 33.45898438 C-8.82724609 33.46865234 -9.94550781 33.47832031 -11.09765625 33.48828125 C-12.12930908 33.5039917 -13.16096191 33.51970215 -14.22387695 33.53588867 C-16.859375 33.1953125 -16.859375 33.1953125 -18.69702148 31.87573242 C-20.67575582 29.01506692 -20.1779153 26.58153438 -19.859375 23.1953125 C-19.14177082 20.40050541 -18.16443052 17.75360274 -17.109375 15.0703125 C-16.73039062 14.03583984 -16.73039062 14.03583984 -16.34375 12.98046875 C-14.53062199 8.239139 -12.53753434 3.89959572 -8.09765625 1.07421875 C-5.27684871 -0.03342819 -3.02785694 -0.0308965 0 0 Z " fill="#2396B2" transform="translate(97.859375,30.8046875)"/>
<path d="M0 0 C1.01513672 -0.020625 2.03027344 -0.04125 3.07617188 -0.0625 C4.05005859 -0.06765625 5.02394531 -0.0728125 6.02734375 -0.078125 C6.9205835 -0.0874707 7.81382324 -0.09681641 8.73413086 -0.10644531 C11.0625 0.25 11.0625 0.25 12.85009766 1.58447266 C14.40446389 3.71976997 14.52932621 5.47893048 14.41357422 8.08300781 C13.65103247 12.78976758 11.82104854 17.18918073 10.125 21.625 C9.75181641 22.63433594 9.37863281 23.64367187 8.99414062 24.68359375 C6.23120301 32.08129699 6.23120301 32.08129699 5.0625 33.25 C3.39632885 33.29063832 1.72861905 33.292721 0.0625 33.25 C0.3925 31.27 0.7225 29.29 1.0625 27.25 C-4.2175 26.92 -9.4975 26.59 -14.9375 26.25 C-14.2775 24.27 -13.6175 22.29 -12.9375 20.25 C-4.5225 19.755 -4.5225 19.755 4.0625 19.25 C5.3825 14.96 6.7025 10.67 8.0625 6.25 C-1.8375 6.745 -1.8375 6.745 -11.9375 7.25 C-15.59809603 15.82625355 -18.87721252 24.44679005 -21.9375 33.25 C-23.9175 33.25 -25.8975 33.25 -27.9375 33.25 C-26.19905262 26.66045658 -23.93878336 20.25665166 -21.5625 13.875 C-21.28269287 13.09012207 -21.00288574 12.30524414 -20.71459961 11.49658203 C-16.66751249 0.85165529 -10.41912871 0.05272171 0 0 Z " fill="#2798B4" transform="translate(136.9375,30.75)"/>
<path d="M0 0 C0.69480469 -0.03287109 1.38960937 -0.06574219 2.10546875 -0.09960938 C6.02358157 -0.14019246 8.57963683 0.38944763 11.62109375 2.7734375 C14.125 5.4375 14.125 5.4375 14.3125 8.5 C12.48926373 13.01011079 9.79719744 14.6412155 5.5 16.6875 C-2.05966149 18.36742478 -9.08429571 18.33854289 -15.875 14.4375 C-17.875 11.4375 -17.875 11.4375 -17.8125 9 C-16.37428253 5.06887226 -13.60663552 3.55963211 -10.19921875 1.3515625 C-6.84142272 0.03101751 -3.55708526 0.02937043 0 0 Z " fill="#119AA7" transform="translate(62.875,19.5625)"/>
<path d="M0 0 C1.65 0 3.3 0 5 0 C4.31092878 3.65943647 3.43178734 7.22441959 2.4375 10.8125 C2.16808594 11.78832031 1.89867187 12.76414062 1.62109375 13.76953125 C1.31365234 14.87361328 1.31365234 14.87361328 1 16 C4.10579494 15.97720599 7.20790484 15.89992181 10.3125 15.8125 C11.19357422 15.80669922 12.07464844 15.80089844 12.98242188 15.79492188 C15.41585415 15.71164853 17.6319172 15.56919839 20 15 C22.125 12.875 22.125 12.875 23 10 C23.38542969 9.11699219 23.77085937 8.23398437 24.16796875 7.32421875 C24.50441406 6.45410156 24.84085938 5.58398438 25.1875 4.6875 C25.53167969 3.80449219 25.87585938 2.92148437 26.23046875 2.01171875 C26.61138672 1.01591797 26.61138672 1.01591797 27 0 C28.98 0 30.96 0 33 0 C27.56928135 16.98543917 27.56928135 16.98543917 21 21 C17.94860525 21.38890325 15.05569871 21.30556987 12 21 C11.87625 21.680625 11.7525 22.36125 11.625 23.0625 C10.90899123 26.4277412 9.97054875 29.70013425 9 33 C7.02 33 5.04 33 3 33 C3.54339792 28.43545749 4.79463821 25.0271824 7 21 C6.30132812 21.03480469 5.60265625 21.06960937 4.8828125 21.10546875 C3.97273437 21.13253906 3.06265625 21.15960938 2.125 21.1875 C1.22007812 21.22230469 0.31515625 21.25710937 -0.6171875 21.29296875 C-1.79667969 21.14794922 -1.79667969 21.14794922 -3 21 C-5.48770979 17.26843532 -5.12648788 15.76581625 -4.55859375 11.49609375 C-3.64066158 7.39428498 -1.89719157 3.73261412 0 0 Z " fill="#1D94B0" transform="translate(193,31)"/>
<path d="M0 0 C1.48983398 -0.01740234 1.48983398 -0.01740234 3.00976562 -0.03515625 C3.96689453 -0.03128906 4.92402344 -0.02742188 5.91015625 -0.0234375 C6.77906494 -0.02005371 7.64797363 -0.01666992 8.54321289 -0.01318359 C11.45149877 0.45833415 12.84004308 1.32528763 14.9375 3.375 C15.25650332 6.50123255 15.35191874 8.54616253 13.9375 11.375 C12.2875 11.375 10.6375 11.375 8.9375 11.375 C8.9375 9.725 8.9375 8.075 8.9375 6.375 C-1.4575 6.87 -1.4575 6.87 -12.0625 7.375 C-12.7225 8.695 -13.3825 10.015 -14.0625 11.375 C-7.7925 11.375 -1.5225 11.375 4.9375 11.375 C4.9375 11.705 4.9375 12.035 4.9375 12.375 C-1.0025 12.705 -6.9425 13.035 -13.0625 13.375 C-13.7225 14.695 -14.3825 16.015 -15.0625 17.375 C-17 16.75 -17 16.75 -19.0625 15.375 C-20.0625 12.625 -20.0625 12.625 -20.0625 9.375 C-15.40038616 0.23008439 -9.3800825 -0.10999445 0 0 Z " fill="#2F9CB6" transform="translate(173.0625,30.625)"/>
<path d="M0 0 C0.93134766 0.01804687 1.86269531 0.03609375 2.82226562 0.0546875 C5.11174197 0.10165112 7.39908184 0.16730525 9.6875 0.25 C9.3575 1.57 9.0275 2.89 8.6875 4.25 C6.89892578 4.27126953 6.89892578 4.27126953 5.07421875 4.29296875 C3.50777373 4.3398683 1.94136865 4.3881157 0.375 4.4375 C-0.41068359 4.44330078 -1.19636719 4.44910156 -2.00585938 4.45507812 C-2.76318359 4.48408203 -3.52050781 4.51308594 -4.30078125 4.54296875 C-4.99727783 4.5586792 -5.69377441 4.57438965 -6.41137695 4.59057617 C-9.3607226 5.61358665 -9.96293596 7.51832924 -11.3125 10.25 C-12.03906728 11.99867896 -12.71923784 13.7672487 -13.35546875 15.55078125 C-13.88237305 17.01547852 -13.88237305 17.01547852 -14.41992188 18.50976562 C-14.77634766 19.51716797 -15.13277344 20.52457031 -15.5 21.5625 C-15.86802734 22.58923828 -16.23605469 23.61597656 -16.61523438 24.67382812 C-17.51908335 27.19756227 -18.41799695 29.72294143 -19.3125 32.25 C-21.2925 32.25 -23.2725 32.25 -25.3125 32.25 C-23.57405262 25.66045658 -21.31378336 19.25665166 -18.9375 12.875 C-18.65769287 12.09012207 -18.37788574 11.30524414 -18.08959961 10.49658203 C-14.44824105 0.91883043 -9.77219236 -0.35911944 0 0 Z " fill="#1B92AF" transform="translate(134.3125,31.75)"/>
<path d="M0 0 C1 1 1 1 1.4375 3.25 C1 6 1 6 -1.8125 8.75 C-5.76497297 11.53998092 -8.33973001 12.15272261 -13.0625 12.1875 C-14.37927734 12.20876953 -14.37927734 12.20876953 -15.72265625 12.23046875 C-18 12 -18 12 -20 10 C-20.125 7.6875 -20.125 7.6875 -19 5 C-13.52237148 -0.36108323 -7.36040289 -0.90549772 0 0 Z " fill="#1688B4" transform="translate(45,18)"/>
<path d="M0 0 C8 0 8 0 11 2 C11.53467581 6.65931778 11.65982599 8.89243495 9.25 12.9375 C6.98577732 15.01303746 5.93296242 15.49431682 3 16 C2.67 16.66 2.34 17.32 2 18 C1.34 18 0.68 18 0 18 C0 12.06 0 6.12 0 0 Z " fill="#57A3CB" transform="translate(21,32)"/>
<path d="M0 0 C0 5.94 0 11.88 0 18 C-8 19 -8 19 -11 18 C-11 17.34 -11 16.68 -11 16 C-11.66 16 -12.32 16 -13 16 C-12.4140625 9.84765625 -12.4140625 9.84765625 -12 8 C-11.34 7.67 -10.68 7.34 -10 7 C-9.67 6.01 -9.34 5.02 -9 4 C-8.34 4 -7.68 4 -7 4 C-7 5.32 -7 6.64 -7 8 C-6.9175 7.05125 -6.835 6.1025 -6.75 5.125 C-6 2 -6 2 -4.0625 0.625 C-2 0 -2 0 0 0 Z " fill="#3089C2" transform="translate(20,33)"/>
<path d="M0 0 C1.670625 0.061875 1.670625 0.061875 3.375 0.125 C4.5625 1.75 4.5625 1.75 5.375 4.125 C3.275 9.225 3.275 9.225 1.375 11.125 C-0.14428038 11.19679964 -1.66667482 11.20892007 -3.1875 11.1875 C-4.01378906 11.17847656 -4.84007812 11.16945313 -5.69140625 11.16015625 C-6.32949219 11.14855469 -6.96757812 11.13695312 -7.625 11.125 C-7.625 9.805 -7.625 8.485 -7.625 7.125 C-6.965 7.125 -6.305 7.125 -5.625 7.125 C-5.625 7.785 -5.625 8.445 -5.625 9.125 C-3.315 9.125 -1.005 9.125 1.375 9.125 C1.375 8.135 1.375 7.145 1.375 6.125 C-1.265 6.125 -3.905 6.125 -6.625 6.125 C-5.71577947 1.57889733 -4.95184304 0.17075321 0 0 Z " fill="#2396B2" transform="translate(185.625,16.875)"/>
<path d="M0 0 C-0.33 1.65 -0.66 3.3 -1 5 C-3.97 5 -6.94 5 -10 5 C-10 5.99 -10 6.98 -10 8 C-7.69 8 -5.38 8 -3 8 C-3 8.66 -3 9.32 -3 10 C-6.3 10 -9.6 10 -13 10 C-11.92420404 0.53299558 -8.9255675 -0.67362774 0 0 Z " fill="#3BA2BA" transform="translate(216,18)"/>
<path d="M0 0 C5.875 0.875 5.875 0.875 7 2 C7.51133273 7.19854941 7.51133273 7.19854941 7 10 C4.5 12.5 4.5 12.5 2 14 C1.66468585 12.04200486 1.33180857 10.08359226 1 8.125 C0.814375 7.03445312 0.62875 5.94390625 0.4375 4.8203125 C0 2 0 2 0 0 Z " fill="#1984B7" transform="translate(25,32)"/>
<path d="M0 0 C3.3 0 6.6 0 10 0 C9.67 0.99 9.34 1.98 9 3 C9 2.34 9 1.68 9 1 C6.6568787 1.25561323 4.32156597 1.59270772 2 2 C1.67 2.66 1.34 3.32 1 4 C3.64 4 6.28 4 9 4 C8.6875 6.375 8.6875 6.375 8 9 C4.3558226 11.4294516 2.28758728 11.16179575 -2 11 C-2.33 9.68 -2.66 8.36 -3 7 C-2.01 6.67 -1.02 6.34 0 6 C0 6.66 0 7.32 0 8 C2.97065509 7.65772428 2.97065509 7.65772428 6 7 C6.33 6.34 6.66 5.68 7 5 C4.36 5 1.72 5 -1 5 C-0.67 3.35 -0.34 1.7 0 0 Z " fill="#2195B2" transform="translate(154,18)"/>
<path d="M0 0 C0.66 0 1.32 0 2 0 C2.66 1.32 3.32 2.64 4 4 C5.32 2.68 6.64 1.36 8 0 C8.99 0.33 9.98 0.66 11 1 C9.68 3.97 8.36 6.94 7 10 C6.67 8.68 6.34 7.36 6 6 C4.02 6.99 4.02 6.99 2 8 C1.67 7.01 1.34 6.02 1 5 C0.34 6.65 -0.32 8.3 -1 10 C-1.66 10 -2.32 10 -3 10 C-2.69201674 8.51988629 -2.378482 7.04092675 -2.0625 5.5625 C-1.88847656 4.73878906 -1.71445313 3.91507813 -1.53515625 3.06640625 C-1 1 -1 1 0 0 Z " fill="#2C9AB5" transform="translate(219,18)"/>
<path d="M0 0 C0.99 0.33 1.98 0.66 3 1 C2.34 3.97 1.68 6.94 1 10 C0.01 10 -0.98 10 -2 10 C-2.33 9.34 -2.66 8.68 -3 8 C-5.31 8 -7.62 8 -10 8 C-10 7.01 -10 6.02 -10 5 C-7.03 5 -4.06 5 -1 5 C-1 4.34 -1 3.68 -1 3 C-3.31 3 -5.62 3 -8 3 C-8 2.67 -8 2.34 -8 2 C-5.36 2 -2.72 2 0 2 C0 1.34 0 0.68 0 0 Z " fill="#E6F3F6" transform="translate(216,18)"/>
<path d="M0 0 C0.66 0 1.32 0 2 0 C1.98839844 0.74765625 1.97679687 1.4953125 1.96484375 2.265625 C1.95582031 3.25046875 1.94679688 4.2353125 1.9375 5.25 C1.92589844 6.22453125 1.91429687 7.1990625 1.90234375 8.203125 C1.98804423 10.65758678 2.29293934 12.66168914 3 15 C1.35 14.67 -0.3 14.34 -2 14 C-2 13.34 -2 12.68 -2 12 C-2.66 12 -3.32 12 -4 12 C-3.4140625 5.84765625 -3.4140625 5.84765625 -3 4 C-2.34 3.67 -1.68 3.34 -1 3 C-0.67 2.01 -0.34 1.02 0 0 Z " fill="#4391C7" transform="translate(11,37)"/>
<path d="M0 0 C0.66 0 1.32 0 2 0 C1.62952882 2.74148672 1.31412056 4.58593199 -0.375 6.8125 C-2 8 -2 8 -5 8 C-5.33 9.32 -5.66 10.64 -6 12 C-6.66 12 -7.32 12 -8 12 C-7.67 10.68 -7.34 9.36 -7 8 C-7.99 7.67 -8.98 7.34 -10 7 C-9.67 5.02 -9.34 3.04 -9 1 C-8.34 1 -7.68 1 -7 1 C-7.33 2.65 -7.66 4.3 -8 6 C-5.05272465 5.89830839 -5.05272465 5.89830839 -2 5 C-0.54708727 2.53744315 -0.54708727 2.53744315 0 0 Z " fill="#36A0B9" transform="translate(176,17)"/>
<path d="M0 0 C0.66 0 1.32 0 2 0 C2 5.94 2 11.88 2 18 C1.34 18 0.68 18 0 18 C-0.19430855 15.3753399 -0.38073238 12.75053235 -0.5625 10.125 C-0.61857422 9.37863281 -0.67464844 8.63226563 -0.73242188 7.86328125 C-1.11328125 2.2265625 -1.11328125 2.2265625 0 0 Z " fill="#4797C8" transform="translate(18,33)"/>
<path d="M0 0 C3.96 0 7.92 0 12 0 C12 0.66 12 1.32 12 2 C10.35 2 8.7 2 7 2 C6.34 4.64 5.68 7.28 5 10 C4.34 10 3.68 10 3 10 C3.33 7.69 3.66 5.38 4 3 C2.68 2.67 1.36 2.34 0 2 C0 1.34 0 0.68 0 0 Z " fill="#369FB9" transform="translate(192,18)"/>
<path d="M0 0 C2.31 0 4.62 0 7 0 C7.66 1.32 8.32 2.64 9 4 C8 5 8 5 5.93359375 5.09765625 C5.10988281 5.08605469 4.28617188 5.07445312 3.4375 5.0625 C2.61121094 5.05347656 1.78492188 5.04445313 0.93359375 5.03515625 C0.29550781 5.02355469 -0.34257812 5.01195312 -1 5 C-0.67 3.35 -0.34 1.7 0 0 Z " fill="#78BED0" transform="translate(182,17)"/>
<path d="M0 0 C0.66 0 1.32 0 2 0 C2 0.66 2 1.32 2 2 C5.465 1.505 5.465 1.505 9 1 C9 1.99 9 2.98 9 4 C6.04335481 5.4783226 3.25770263 5.06032783 0 5 C-0.5625 3.0625 -0.5625 3.0625 -1 1 C-0.67 0.67 -0.34 0.34 0 0 Z " fill="#58B0C5" transform="translate(152,24)"/>
<path d="M0 0 C0.66 1.32 1.32 2.64 2 4 C4.31 4 6.62 4 9 4 C9 4.66 9 5.32 9 6 C5.7 6 2.4 6 -1 6 C-0.67 4.02 -0.34 2.04 0 0 Z " fill="#4BAAC0" transform="translate(204,22)"/>
<path d="M0 0 C0.66 0 1.32 0 2 0 C2.33 1.32 2.66 2.64 3 4 C2.01 4.495 2.01 4.495 1 5 C0.27840576 6.64363134 -0.39351421 8.31050386 -1 10 C-1.66 10 -2.32 10 -3 10 C-2.69201674 8.51988629 -2.378482 7.04092675 -2.0625 5.5625 C-1.88847656 4.73878906 -1.71445313 3.91507813 -1.53515625 3.06640625 C-1 1 -1 1 0 0 Z " fill="#3AA1BB" transform="translate(219,18)"/>
<path d="M0 0 C2.78637633 4.1795645 1.79562512 6.14668677 1 11 C0.67 10.34 0.34 9.68 0 9 C-0.66 9 -1.32 9 -2 9 C-1.125 1.125 -1.125 1.125 0 0 Z " fill="#77AED7" transform="translate(9,40)"/>
<path d="M0 0 C0.66 0 1.32 0 2 0 C2 0.66 2 1.32 2 2 C4.64 1.67 7.28 1.34 10 1 C9.67 1.99 9.34 2.98 9 4 C6.03 4 3.06 4 0 4 C0 2.68 0 1.36 0 0 Z " fill="#3DA2BC" transform="translate(178,24)"/>
<path d="M0 0 C2.31 0 4.62 0 7 0 C7.33 0.99 7.66 1.98 8 3 C5.03 3 2.06 3 -1 3 C-0.67 2.01 -0.34 1.02 0 0 Z " fill="#91CBD8" transform="translate(156,19)"/>
<path d="M0 0 C2.31 0 4.62 0 7 0 C7 0.99 7 1.98 7 3 C4.69 3 2.38 3 0 3 C0 2.01 0 1.02 0 0 Z " fill="#E7F4F6" transform="translate(180,23)"/>
<path d="M0 0 C2.31 0 4.62 0 7 0 C6.67 0.99 6.34 1.98 6 3 C4.02 3 2.04 3 0 3 C0 2.01 0 1.02 0 0 Z " fill="#E9F4F6" transform="translate(154,23)"/>
<path d="M0 0 C0 1.65 0 3.3 0 5 C-1.65 5 -3.3 5 -5 5 C-4.625 3.0625 -4.625 3.0625 -4 1 C-2 0 -2 0 0 0 Z " fill="#128FAD" transform="translate(187,37)"/>
</svg>
